<?xml version="1.0" encoding="UTF-8"?>
<svg version="1.1" xmlns="http://www.w3.org/2000/svg" width="234" height="463">
<path d="M0 0 C0.93154215 -0.00131613 1.8630843 -0.00263226 2.822855 -0.00398827 C4.36151505 0.00166429 4.36151505 0.00166429 5.93125916 0.00743103 C7.00904821 0.00762426 8.08683727 0.0078175 9.19728661 0.00801659 C12.7934524 0.01032168 16.38955152 0.0202607 19.98570251 0.03062439 C22.51720143 0.03465729 25.04870067 0.03848387 27.5802002 0.04211426 C52.91965614 0.08868405 78.25836614 0.26530966 103.5967865 0.49278259 C109.92646783 0.54940152 116.25618625 0.59898503 122.58593655 0.64718533 C127.52960308 0.68587445 132.47322349 0.72898483 137.41684151 0.77340889 C139.75772336 0.79373726 142.09861968 0.81246547 144.43952751 0.82954216 C147.6495612 0.85341958 150.85947812 0.88345072 154.06944275 0.91514587 C155.02515167 0.92090134 155.9808606 0.9266568 156.9655304 0.93258667 C163.46135999 1.00628186 163.46135999 1.00628186 164.57554626 2.12046814 C164.6732385 4.04393766 164.69925936 5.97105545 164.69859409 7.89700413 C164.70058514 9.15998437 164.70257619 10.42296462 164.70462757 11.724217 C164.70177398 13.14402571 164.69882837 14.56383423 164.69580078 15.98364258 C164.69623635 17.47768355 164.697111 18.97172445 164.69838995 20.46576494 C164.7006377 24.59088497 164.69660982 28.71597929 164.69161189 32.84109604 C164.68731156 37.28215609 164.68875351 41.72321458 164.68951416 46.16427612 C164.69003966 53.86522836 164.68689013 61.56617216 164.68127632 69.26712227 C164.67316486 80.40153729 164.67054647 91.53594821 164.66928833 102.67036586 C164.66709725 120.73324407 164.66043566 138.79611777 164.65098572 156.85899353 C164.64181304 174.41010007 164.6347315 191.96120539 164.63047791 209.51231384 C164.63021518 210.59334352 164.62995246 211.67437319 164.62968177 212.78816134 C164.62837678 218.2111245 164.62711306 223.63408766 164.62586987 229.05705082 C164.61549552 274.07819305 164.5978757 319.09933036 164.57554626 364.12046814 C162.25777253 365.27935501 160.8488588 365.27480318 158.26646423 365.32579041 C157.36781143 365.34572052 156.46915863 365.36565063 155.54327393 365.38618469 C154.56134567 365.40291229 153.57941742 365.41963989 152.56773376 365.43687439 C151.54612656 365.45779144 150.52451935 365.4787085 149.47195435 365.5002594 C146.1315646 365.56671426 142.7911014 365.62546622 139.45054626 365.68296814 C138.32228424 365.70348236 137.19402222 365.72399658 136.03157043 365.74513245 C128.21311823 365.88681774 120.39450994 366.01071212 112.57554626 366.12046814 C111.17994476 366.1401062 111.17994476 366.1401062 109.75614929 366.16014099 C105.06050319 366.22350886 100.36513571 366.27325917 95.66911316 366.29670715 C93.67352821 366.30777141 91.67799696 366.32744524 89.68247986 366.34727478 C87.91445007 366.34908752 87.91445007 366.34908752 86.11070251 366.35093689 C85.10402527 366.35504578 84.09734802 366.35915466 83.06016541 366.36338806 C80.57554626 366.12046814 80.57554626 366.12046814 77.57554626 364.12046814 C77.66300911 362.6818552 77.77119974 361.24449306 77.88804626 359.80796814 C77.94605408 359.00746033 78.00406189 358.20695251 78.06382751 357.38218689 C78.57554626 355.12046814 78.57554626 355.12046814 81.57554626 352.12046814 C104.34554626 351.79046814 127.11554626 351.46046814 150.57554626 351.12046814 C150.57554626 240.24046814 150.57554626 129.36046814 150.57554626 15.12046814 C78.80054626 14.62546814 78.80054626 14.62546814 5.57554626 14.12046814 C-3.42445374 8.12046814 -3.42445374 8.12046814 -6.42445374 4.12046814 C-6.42445374 3.13046814 -6.42445374 2.14046814 -6.42445374 1.12046814 C-4.05592925 -0.0637941 -2.64176807 -0.00293458 0 0 Z " fill="#D5BF9B" transform="translate(55.42445373535156,46.87953186035156)"/>
<path d="M0 0 C2.60637216 0.98627723 3.77118929 1.56634291 5.09326172 4.07202148 C5.36928223 4.91321533 5.64530273 5.75440918 5.9296875 6.62109375 C6.24687744 7.55155518 6.56406738 8.4820166 6.89086914 9.44067383 C7.21563232 10.42962646 7.54039551 11.4185791 7.875 12.4375 C12.02241053 24.40832562 16.86419202 34.23340646 25 44 C25.72896484 44.96486328 25.72896484 44.96486328 26.47265625 45.94921875 C34.74305607 56.37711417 47.1111514 63.19169084 58.35864258 69.94018555 C82.25337195 84.34280498 103.59061007 103.47101158 111.25 131.3046875 C115.08775958 150.21364879 113.84465691 167.42881518 109 186 C107.68 186.33 106.36 186.66 105 187 C104.608125 185.7625 104.21625 184.525 103.8125 183.25 C93.91175978 153.73283991 76.03443761 135.78434044 49.69262695 119.99023438 C19.39008761 101.81215732 19.39008761 101.81215732 11 89 C10.40058594 88.11183594 9.80117188 87.22367187 9.18359375 86.30859375 C0.34751269 72.28155362 -4.03309737 56.15972809 -4.75 39.6875 C-4.79165283 38.7490625 -4.83330566 37.810625 -4.8762207 36.84375 C-5.25910012 25.22747936 -5.37962019 11.94039511 -1 1 C-0.67 0.67 -0.34 0.34 0 0 Z " fill="#116D68" transform="translate(16,9)"/>
<path d="M0 0 C1.32 0 2.64 0 4 0 C4.23074219 0.64324219 4.46148437 1.28648438 4.69921875 1.94921875 C5.78941727 4.96988737 6.89414974 7.98502713 8 11 C8.57814453 12.60294922 8.57814453 12.60294922 9.16796875 14.23828125 C19.31096922 41.64736018 37.33307188 56.32989979 61.64892578 70.7512207 C86.77640967 85.7622301 105.8748483 106.88981375 113.3125 135.5625 C116.35668048 152.19565108 114.74887427 168.85382749 110 185 C108.68 185.33 107.36 185.66 106 186 C105.64808594 184.92363281 105.29617187 183.84726562 104.93359375 182.73828125 C99.72180991 167.16917364 93.07452101 153.48551998 81 142 C80.19369141 141.12794922 80.19369141 141.12794922 79.37109375 140.23828125 C70.78995792 131.11970476 60.02858512 124.98554161 49.4375 118.5 C37.68966495 111.29780445 27.04201018 103.48941379 17 94 C16.41347656 93.48179687 15.82695312 92.96359375 15.22265625 92.4296875 C14 91 14 91 14 88 C13.34 88 12.68 88 12 88 C-3.17675232 62.76680742 -7.03564703 35.03333977 -2 6 C-1.39683388 3.97994182 -0.75808024 1.96717025 0 0 Z " fill="#106D67" transform="translate(15,114)"/>
<path d="M0 0 C0.99 0.33 1.98 0.66 3 1 C4.07746345 3.3993934 4.96897889 5.70658913 5.8125 8.1875 C6.34297505 9.65830287 6.8755676 11.12834354 7.41015625 12.59765625 C7.67715332 13.33902832 7.94415039 14.08040039 8.21923828 14.84423828 C18.35300592 42.82459108 36.44059326 56.23144477 61.13769531 71.3046875 C82.70211079 84.50693879 100.55589074 101.56917855 109 126 C109.39316406 127.12019531 109.78632812 128.24039063 110.19140625 129.39453125 C115.71822624 147.78516918 114.28674397 167.73241146 109 186 C107.68 186.33 106.36 186.66 105 187 C104.72905518 186.17761841 104.72905518 186.17761841 104.45263672 185.33862305 C95.90128467 159.59543403 83.51852186 139.09852558 59.20703125 125.4296875 C58.47871094 124.95789063 57.75039062 124.48609375 57 124 C57 123.34 57 122.68 57 122 C56.41283203 121.87616943 55.82566406 121.75233887 55.22070312 121.62475586 C53.00314447 121.00088464 51.42130465 120.20857625 49.46875 119.00390625 C48.82292969 118.61009766 48.17710938 118.21628906 47.51171875 117.81054688 C46.84785156 117.39869141 46.18398438 116.98683594 45.5 116.5625 C39.87313208 113.0600928 39.87313208 113.0600928 34 110 C34 109.34 34 108.68 34 108 C33.1646875 107.5978125 33.1646875 107.5978125 32.3125 107.1875 C29.78774666 105.89100504 27.36285516 104.57523677 25 103 C25 102.34 25 101.68 25 101 C24.443125 100.773125 23.88625 100.54625 23.3125 100.3125 C20.34390397 98.62762117 18.25342682 96.51573047 16 94 C15.38898437 93.33226562 14.77796875 92.66453125 14.1484375 91.9765625 C-0.56081255 74.88202865 -4.46062449 53.40269598 -4.4375 31.5 C-4.43796829 30.48898727 -4.43796829 30.48898727 -4.43844604 29.45755005 C-4.35774468 6.53661703 -4.35774468 6.53661703 0 0 Z " fill="#0E6D67" transform="translate(16,224)"/>
<path d="M0 0 C0.99 0.495 0.99 0.495 2 1 C1.67 117.16 1.34 233.32 1 353 C-3.9912863 353.7130409 -8.29301298 354.12994011 -13.26464844 354.14526367 C-14.29770866 354.15030159 -14.29770866 354.15030159 -15.35163879 354.15544128 C-17.60423636 354.16486014 -19.85675903 354.16688907 -22.109375 354.16796875 C-23.6840213 354.17118511 -25.2586673 354.17454947 -26.83331299 354.17805481 C-30.12146702 354.1840215 -33.40959485 354.18589699 -36.69775391 354.18530273 C-40.91341795 354.18520067 -45.12891525 354.19890949 -49.34453964 354.21607494 C-52.59070614 354.22717747 -55.8368319 354.22922257 -59.08301544 354.22869301 C-60.63796824 354.22987358 -62.19292208 354.23429969 -63.74785614 354.24202538 C-65.9163348 354.25180015 -68.08444537 354.24895857 -70.25292969 354.24291992 C-71.48646179 354.24434494 -72.7199939 354.24576996 -73.99090576 354.24723816 C-77 354 -77 354 -80 352 C-79.67 349.69 -79.34 347.38 -79 345 C-55.24 345 -31.48 345 -7 345 C-7 233.13 -7 121.26 -7 6 C-5.02 6 -3.04 6 -1 6 C-0.67 4.02 -0.34 2.04 0 0 Z " fill="#CBA579" transform="translate(216,55)"/>
<path d="M0 0 C56.1 0 112.2 0 170 0 C170 119.46 170 238.92 170 362 C167.68222626 363.15888687 166.27331254 363.15433504 163.69091797 363.20532227 C162.79226517 363.22525238 161.89361237 363.2451825 160.96772766 363.26571655 C159.98579941 363.28244415 159.00387115 363.29917175 157.9921875 363.31640625 C156.97058029 363.3373233 155.94897308 363.35824036 154.89640808 363.37979126 C151.55601833 363.44624612 148.21555514 363.50499808 144.875 363.5625 C143.74673798 363.58301422 142.61847595 363.60352844 141.45602417 363.62466431 C133.63757196 363.7663496 125.81896368 363.89024398 118 364 C116.6043985 364.01963806 116.6043985 364.01963806 115.18060303 364.03967285 C110.48495693 364.10304072 105.78958945 364.15279103 101.09356689 364.17623901 C99.09798195 364.18730327 97.10245069 364.2069771 95.10693359 364.22680664 C93.33890381 364.22861938 93.33890381 364.22861938 91.53515625 364.23046875 C90.528479 364.23457764 89.52180176 364.23868652 88.48461914 364.24291992 C86 364 86 364 83 362 C83.08708669 360.54054712 83.19526907 359.08234132 83.3125 357.625 C83.37050781 356.81289063 83.42851562 356.00078125 83.48828125 355.1640625 C84 353 84 353 87 351 C87 353.31 87 355.62 87 358 C90.59207013 359.11714635 93.94509314 359.12690728 97.69287109 359.12939453 C98.35681381 359.13114685 99.02075653 359.13289917 99.70481873 359.13470459 C101.8943851 359.1390969 104.08387033 359.13619367 106.2734375 359.1328125 C107.80034399 359.13348645 109.32725037 359.13445724 110.85415649 359.13571167 C114.05349754 359.13718523 117.25281064 359.13504565 120.45214844 359.13037109 C124.54312563 359.12468368 128.63403707 359.12794871 132.72501183 359.13394356 C135.87865692 359.13756664 139.03228658 359.13640239 142.18593216 359.13381577 C143.6937422 359.13315083 145.20155366 359.13395972 146.70936203 359.13629532 C148.82239207 359.13884948 150.93531754 359.13494207 153.04833984 359.12939453 C154.24872894 359.12859894 155.44911804 359.12780334 156.68588257 359.12698364 C159.87899502 359.00463642 162.85786169 358.55360004 166 358 C166.19605484 313.20840788 166.37634374 268.41677654 166.53537826 223.62503685 C166.5541515 218.34141413 166.57305577 213.05779188 166.59204102 207.77416992 C166.59581856 206.72226045 166.59959611 205.67035099 166.60348812 204.58656547 C166.66503056 187.53632194 166.73719681 170.48613899 166.8132638 153.43595477 C166.89103362 135.95129188 166.95744574 118.46661269 167.01323253 100.9818657 C167.04803857 90.18589678 167.09178809 79.39003918 167.14684484 68.59415422 C167.18371122 61.19903486 167.20958238 53.80392893 167.22667392 46.40873762 C167.23687551 42.13699814 167.25205214 37.86542331 167.28024101 33.59376144 C167.30591322 29.68731787 167.31785906 25.78108792 167.31862888 21.8745623 C167.32137764 20.4572708 167.32927641 19.03997856 167.34269472 17.62274792 C167.36012701 15.70406039 167.35740334 13.78522075 167.35352612 11.86645794 C167.3597915 10.26422801 167.3597915 10.26422801 167.36618346 8.62962979 C167.21260718 5.97852924 167.21260718 5.97852924 165.63659507 4.17623025 C160.82481682 0.71797766 153.28896982 1.9024857 147.62475586 1.97827148 C146.59091263 1.98787903 145.5570694 1.99748657 144.49189758 2.00738525 C141.06614434 2.04039253 137.64051847 2.08080737 134.21484375 2.12109375 C131.80099491 2.14545651 129.38714075 2.16929673 126.97328186 2.19264221 C120.59071633 2.25553099 114.2082304 2.32442349 107.82574463 2.39489746 C97.74608957 2.50533776 87.66634765 2.60769923 77.58659744 2.70903397 C75.13466808 2.73369784 72.68274087 2.75857655 70.23081589 2.78367233 C49.81992413 2.9910297 29.41179286 3.07355624 9 3 C8.67 4.65 8.34 6.3 8 8 C6.85073734 7.04578192 5.70569459 6.08647955 4.5625 5.125 C3.92441406 4.59132813 3.28632812 4.05765625 2.62890625 3.5078125 C1 2 1 2 0 0 Z " fill="#BFAA86" transform="translate(50,49)"/>
<path d="M0 0 C2.60637216 0.98627723 3.77118929 1.56634291 5.09326172 4.07202148 C5.36928223 4.91321533 5.64530273 5.75440918 5.9296875 6.62109375 C6.24687744 7.55155518 6.56406738 8.4820166 6.89086914 9.44067383 C7.21563232 10.42962646 7.54039551 11.4185791 7.875 12.4375 C13.32874284 28.17884124 20.92956744 39.65091566 32 52 C31.34 52.66 30.68 53.32 30 54 C29.01 53.67 28.02 53.34 27 53 C27.66 53 28.32 53 29 53 C28.34 52.01 27.68 51.02 27 50 C25.02 50.495 25.02 50.495 23 51 C23 50.34 23 49.68 23 49 C19.32937509 47.42687504 17.55697326 46.85559952 13.625 47.875 C12.75875 48.24625 11.8925 48.6175 11 49 C10.67 48.34 10.34 47.68 10 47 C9.34 47.99 8.68 48.98 8 50 C7.74605469 49.28714844 7.49210937 48.57429688 7.23046875 47.83984375 C5.30506746 42.48189183 3.31239649 37.2028921 1 32 C0.34 32 -0.32 32 -1 32 C-1.33 27.71 -1.66 23.42 -2 19 C-2.05437578 23.43766796 -2.09385724 27.87465713 -2.125 32.3125 C-2.14175781 33.55580078 -2.15851562 34.79910156 -2.17578125 36.08007812 C-2.21104628 42.79806703 -1.89233507 49.05401852 -0.43310547 55.62182617 C0.02356202 58.12937862 0.07187785 60.45682592 0 63 C-4.41889891 56.37165164 -4.41138613 47.46781025 -4.75 39.6875 C-4.79165283 38.7490625 -4.83330566 37.810625 -4.8762207 36.84375 C-5.25910012 25.22747936 -5.37962019 11.94039511 -1 1 C-0.67 0.67 -0.34 0.34 0 0 Z " fill="#17817D" transform="translate(16,9)"/>
<path d="M0 0 C0.33 0 0.66 0 1 0 C1 119.46 1 238.92 1 362 C-1.31777374 363.15888687 -2.72668746 363.15433504 -5.30908203 363.20532227 C-6.65706123 363.23521744 -6.65706123 363.23521744 -8.03227234 363.26571655 C-9.01420059 363.28244415 -9.99612885 363.29917175 -11.0078125 363.31640625 C-12.02941971 363.3373233 -13.05102692 363.35824036 -14.10359192 363.37979126 C-17.44398167 363.44624612 -20.78444486 363.50499808 -24.125 363.5625 C-25.25326202 363.58301422 -26.38152405 363.60352844 -27.54397583 363.62466431 C-35.36242804 363.7663496 -43.18103632 363.89024398 -51 364 C-52.3956015 364.01963806 -52.3956015 364.01963806 -53.81939697 364.03967285 C-58.51504307 364.10304072 -63.21041055 364.15279103 -67.90643311 364.17623901 C-69.90201805 364.18730327 -71.89754931 364.2069771 -73.89306641 364.22680664 C-75.66109619 364.22861938 -75.66109619 364.22861938 -77.46484375 364.23046875 C-78.471521 364.23457764 -79.47819824 364.23868652 -80.51538086 364.24291992 C-83 364 -83 364 -86 362 C-85.91291331 360.54054712 -85.80473093 359.08234132 -85.6875 357.625 C-85.62949219 356.81289063 -85.57148438 356.00078125 -85.51171875 355.1640625 C-85 353 -85 353 -82 351 C-82.66 354.3 -83.32 357.6 -84 361 C-56.28 361 -28.56 361 0 361 C0 241.87 0 122.74 0 0 Z " fill="#FEEAD7" transform="translate(219,49)"/>
<path d="M0 0 C0.99 0.33 1.98 0.66 3 1 C4.07746345 3.3993934 4.96897889 5.70658913 5.8125 8.1875 C6.34297505 9.65830287 6.8755676 11.12834354 7.41015625 12.59765625 C7.67715332 13.33902832 7.94415039 14.08040039 8.21923828 14.84423828 C12.35280829 26.25744128 17.65347052 35.44660791 25 45 C24.01 45.495 24.01 45.495 23 46 C22.67 46.66 22.34 47.32 22 48 C20.35 47.67 18.7 47.34 17 47 C17 45.35 17 43.7 17 42 C15.02 42.495 15.02 42.495 13 43 C12.34 42.01 11.68 41.02 11 40 C10.54625 40.825 10.0925 41.65 9.625 42.5 C9.08875 43.325 8.5525 44.15 8 45 C7.34 45 6.68 45 6 45 C3.34032068 39.33630789 2.6019819 33.14926685 1.5 27.04101562 C1.335 26.16767578 1.17 25.29433594 1 24.39453125 C0.855625 23.59893799 0.71125 22.80334473 0.5625 21.98364258 C0.11438677 19.78946907 0.11438677 19.78946907 -2 18 C-2 29.55 -2 41.1 -2 53 C-1.34 53 -0.68 53 0 53 C0 55.64 0 58.28 0 61 C0.99 61.33 1.98 61.66 3 62 C3 63.65 3 65.3 3 67 C3.66 67 4.32 67 5 67 C5 67.66 5 68.32 5 69 C4.34 69 3.68 69 3 69 C3.33 70.65 3.66 72.3 4 74 C1.85883362 71.85883362 1.52166609 70.91832216 0.74609375 68.078125 C0.42415039 66.91023438 0.42415039 66.91023438 0.09570312 65.71875 C-0.12150391 64.9040625 -0.33871094 64.089375 -0.5625 63.25 C-0.78357422 62.45078125 -1.00464844 61.6515625 -1.23242188 60.828125 C-3.6331416 52.00856251 -4.18634098 43.70228172 -4.18530273 34.58959961 C-4.18746914 32.46772579 -4.20560098 30.34639009 -4.22460938 28.22460938 C-4.31637369 6.47456054 -4.31637369 6.47456054 0 0 Z M17 40 C18 42 18 42 18 42 Z M11 43 C13 44 13 44 13 44 Z " fill="#17827E" transform="translate(16,224)"/>
<path d="M0 0 C1.32 0 2.64 0 4 0 C4.23074219 0.64324219 4.46148437 1.28648438 4.69921875 1.94921875 C5.78941727 4.96988737 6.89414974 7.98502713 8 11 C8.57814453 12.60294922 8.57814453 12.60294922 9.16796875 14.23828125 C18.4807551 39.40390133 34.39699123 54.57544261 57 68 C56.01 68.495 56.01 68.495 55 69 C52.43406472 67.58760023 50.0447667 65.96770436 47.60546875 64.34765625 C44.74103239 62.86605124 43.17125067 62.7431549 40 63 C37 63 37 63 35 62 C34.505 62.99 34.505 62.99 34 64 C31 62 31 62 30 61 C28.67479497 60.31731862 27.34187818 59.6492959 26 59 C26.33 58.34 26.66 57.68 27 57 C27.66 57 28.32 57 29 57 C29 56.34 29 55.68 29 55 C28.360625 54.7525 27.72125 54.505 27.0625 54.25 C25 53 25 53 24.5 51.25 C24.2525 50.13625 24.2525 50.13625 24 49 C21.88085182 45.46808637 20.44818588 43.29879059 17 41 C16.3125 37.375 16.3125 37.375 16 34 C14.515 33.505 14.515 33.505 13 33 C12.67 30.36 12.34 27.72 12 25 C11.34 25 10.68 25 10 25 C10.20625 25.598125 10.4125 26.19625 10.625 26.8125 C11 29 11 29 9 32 C7.39274365 28.78548731 7.94251815 25.56387464 8 22 C7.34 22 6.68 22 6 22 C5.87625 22.5775 5.7525 23.155 5.625 23.75 C4.99274387 26.02612206 4.08136532 27.90760206 3 30 C2.00179696 21.01617265 1.49195343 12.02263527 1 3 C-0.78746024 12.57553444 -1.30771129 21.83333781 -1.25 31.5625 C-1.25714685 32.91471722 -1.26495663 34.26693111 -1.2734375 35.61914062 C-1.27085938 36.90111328 -1.26828125 38.18308594 -1.265625 39.50390625 C-1.26336914 40.65705322 -1.26111328 41.8102002 -1.25878906 42.99829102 C-1.00406815 45.95281335 -0.34745567 47.43359728 1 50 C0.625 53.75 0.625 53.75 0 57 C0.99 57.33 1.98 57.66 3 58 C2.979375 59.03125 2.95875 60.0625 2.9375 61.125 C2.99276661 64.55152969 3.34550715 67.64572414 4 71 C-3.66875711 63.33124289 -3.96897181 43.60460478 -4.01123047 33.24755859 C-3.58851319 7.17702637 -3.58851319 7.17702637 0 0 Z " fill="#2E8A82" transform="translate(15,114)"/>
<path d="M0 0 C1.32 0.33 2.64 0.66 4 1 C4 1.66 4 2.32 4 3 C3.34 3 2.68 3 2 3 C1.67 111.24 1.34 219.48 1 331 C1.66 331.33 2.32 331.66 3 332 C2.01 335.465 2.01 335.465 1 339 C0.67 339 0.34 339 0 339 C0 227.13 0 115.26 0 0 Z M-72 339 C-48.24 339 -24.48 339 0 339 C0 339.33 0 339.66 0 340 C-21.78 340 -43.56 340 -66 340 C-66 340.66 -66 341.32 -66 342 C-68.31 342.66 -70.62 343.32 -73 344 C-72.67 342.35 -72.34 340.7 -72 339 Z " fill="#BDA986" transform="translate(209,61)"/>
<path d="M0 0 C0.33 0 0.66 0 1 0 C0.98839844 0.60585937 0.97679687 1.21171875 0.96484375 1.8359375 C0.89879086 7.96942049 1.24912015 13.91528396 2 20 C2.12246094 21.08410156 2.24492187 22.16820312 2.37109375 23.28515625 C3.40350929 31.53534416 5.32355859 39.13795337 8 47 C9.24587859 50.66593053 10.32656518 54.18386935 11 58 C10.01 58 9.02 58 8 58 C8 59.98 8 61.96 8 64 C6.02 64.495 6.02 64.495 4 65 C5.29144978 67.99992729 5.29144978 67.99992729 7 71 C7.99 71.33 8.98 71.66 10 72 C9.67 72.99 9.34 73.98 9 75 C7.140625 74.7890625 7.140625 74.7890625 5 74 C1.71637526 68.7097157 0.46616403 63.13911369 1 57 C0.34 56.67 -0.32 56.34 -1 56 C-1 54.35 -1 52.7 -1 51 C-1.33 51 -1.66 51 -2 51 C-3.17694121 44.79244225 -3.1860722 38.74526312 -3.18530273 32.4440918 C-3.18746743 30.46724292 -3.20591427 28.49043353 -3.22460938 26.51367188 C-3.25472111 6.50944222 -3.25472111 6.50944222 0 0 Z " fill="#095851" transform="translate(16,115)"/>
<path d="M0 0 C0.99 0.495 0.99 0.495 2 1 C2.31865451 4.00900902 2.37990138 6.99541049 2.4609375 10.01953125 C3.11637189 13.64341848 4.37403811 14.52880012 7 17 C7.90625 19.4453125 7.90625 19.4453125 8.5 22.125 C10.39434727 29.83622885 13.30616625 36.98171587 17 44 C15.02 44.495 15.02 44.495 13 45 C12.505 43.515 12.505 43.515 12 42 C8.77595022 43.66954819 8.77595022 43.66954819 8.3125 46.625 C8.209375 47.40875 8.10625 48.1925 8 49 C6.515 49.495 6.515 49.495 5 50 C4.53315852 48.56524053 4.07720356 47.12694004 3.625 45.6875 C3.24214844 44.48673828 3.24214844 44.48673828 2.8515625 43.26171875 C0.26634732 33.35963309 -0.25770475 24.03587001 -0.125 13.8125 C-0.1149393 12.46550153 -0.10581897 11.11849569 -0.09765625 9.77148438 C-0.07430604 6.51412979 -0.0415577 3.25716451 0 0 Z " fill="#0D5952" transform="translate(13,27)"/>
<path d="M0 0 C2.60637216 0.98627723 3.77118929 1.56634291 5.09326172 4.07202148 C5.36928223 4.91321533 5.64530273 5.75440918 5.9296875 6.62109375 C6.24687744 7.55155518 6.56406738 8.4820166 6.89086914 9.44067383 C7.21563232 10.42962646 7.54039551 11.4185791 7.875 12.4375 C11.74430215 23.60561104 15.97272075 33.05013006 23.6796875 42.125 C25 44 25 44 25 47 C20.30410599 42.02624244 16.62923452 37.02008037 13.359375 31.00390625 C12.08699394 28.69146259 12.08699394 28.69146259 9 28 C8.67 26.02 8.34 24.04 8 22 C7.34 22 6.68 22 6 22 C5.67 20.02 5.34 18.04 5 16 C4.01 16.33 3.02 16.66 2 17 C1.89530662 22.75813575 2.25983299 28.29014022 3 34 C1.046875 33.4140625 1.046875 33.4140625 -1 32 C-1.609375 28.9609375 -1.609375 28.9609375 -1.75 25.375 C-1.80671875 24.18648437 -1.8634375 22.99796875 -1.921875 21.7734375 C-1.94765625 20.85820312 -1.9734375 19.94296875 -2 19 C-2.05878606 23.43744296 -2.09385813 27.87478373 -2.125 32.3125 C-2.14175781 33.55580078 -2.15851562 34.79910156 -2.17578125 36.08007812 C-2.21104628 42.79806703 -1.89233507 49.05401852 -0.43310547 55.62182617 C0.02356202 58.12937862 0.07187785 60.45682592 0 63 C-4.41889891 56.37165164 -4.41138613 47.46781025 -4.75 39.6875 C-4.79165283 38.7490625 -4.83330566 37.810625 -4.8762207 36.84375 C-5.25910012 25.22747936 -5.37962019 11.94039511 -1 1 C-0.67 0.67 -0.34 0.34 0 0 Z " fill="#7FB7B4" transform="translate(16,9)"/>
<path d="M0 0 C0.99 0.33 1.98 0.66 3 1 C3.09796875 1.7528125 3.1959375 2.505625 3.296875 3.28125 C4.31628666 10.52258799 5.75475298 17.47817758 7.67871094 24.52929688 C8.62691943 28.08911176 9.36828784 31.31030141 9 35 C8.505 35.433125 8.01 35.86625 7.5 36.3125 C4.97957243 39.14798102 5.81927744 42.32530788 6 46 C7.32 46.66 8.64 47.32 10 48 C9.67 51.63 9.34 55.26 9 59 C8.01 58.67 7.02 58.34 6 58 C5.855625 57.195625 5.71125 56.39125 5.5625 55.5625 C5.25864751 53.07896294 5.25864751 53.07896294 4 52 C3.95919217 50.00041636 3.95745644 47.99954746 4 46 C3.34 45.67 2.68 45.34 2 45 C2 42.36 2 39.72 2 37 C1.34 37 0.68 37 0 37 C-0.73823639 32.37740858 -1.12811512 27.94131742 -1.1328125 23.26171875 C-1.13410156 22.03001953 -1.13539062 20.79832031 -1.13671875 19.52929688 C-1.13285156 18.26150391 -1.12898437 16.99371094 -1.125 15.6875 C-1.12886719 14.40037109 -1.13273438 13.11324219 -1.13671875 11.78710938 C-1.13542969 10.56185547 -1.13414063 9.33660156 -1.1328125 8.07421875 C-1.13168457 6.95619873 -1.13055664 5.83817871 -1.12939453 4.6862793 C-1 2 -1 2 0 0 Z " fill="#0A564F" transform="translate(14,240)"/>
<path d="M0 0 C3.91086359 1.65459614 6.76482202 4.29301434 10 7 C10.94875 7.556875 11.8975 8.11375 12.875 8.6875 C13.926875 9.3371875 13.926875 9.3371875 15 10 C15 10.66 15 11.32 15 12 C17.475 12.495 17.475 12.495 20 13 C20 13.66 20 14.32 20 15 C20.66 15 21.32 15 22 15 C22.33 14.34 22.66 13.68 23 13 C23.33 13.66 23.66 14.32 24 15 C23.67 15.66 23.34 16.32 23 17 C23.66 17 24.32 17 25 17 C25 16.01 25 15.02 25 14 C25.66 14 26.32 14 27 14 C28.61726841 17.53777464 29.10748399 20.13057648 29 24 C29.33 24.33 29.66 24.66 30 25 C32.12307546 29.44464984 32.83388399 33.99718673 33.625 38.8125 C33.82609375 39.99489258 33.82609375 39.99489258 34.03125 41.20117188 C34.3591229 43.13328006 34.68024237 45.0665322 35 47 C35.66 47 36.32 47 37 47 C37.33 44.69 37.66 42.38 38 40 C38.33 40 38.66 40 39 40 C38.88557539 41.60495567 38.75805306 43.20898119 38.625 44.8125 C38.55539063 45.70582031 38.48578125 46.59914063 38.4140625 47.51953125 C38 50 38 50 36 53 C35.01 53 34.02 53 33 53 C32.64808594 51.92363281 32.29617187 50.84726562 31.93359375 49.73828125 C26.72180991 34.16917364 20.07452101 20.48551998 8 9 C6.55810494 7.5878069 5.12089432 6.17082069 3.6875 4.75 C2.99011719 4.06421875 2.29273437 3.3784375 1.57421875 2.671875 C0 1 0 1 0 0 Z " fill="#1E827B" transform="translate(88,247)"/>
<path d="M0 0 C0.598125 0.185625 1.19625 0.37125 1.8125 0.5625 C4.16408762 1.22093687 4.16408762 1.22093687 7 0 C7.185625 0.928125 7.37125 1.85625 7.5625 2.8125 C8.74888369 6.34608496 8.74888369 6.34608496 12.5625 7.75 C13.696875 8.1625 14.83125 8.575 16 9 C16.33 9.66 16.66 10.32 17 11 C19.02463255 11.65213292 19.02463255 11.65213292 21 12 C21.77842938 8.59437148 22.09978121 5.49234244 22 2 C25.97497544 5.40712181 27.86793788 9.32760855 30 14 C29.34 14 28.68 14 28 14 C27.26665571 17.97754128 27.26665571 17.97754128 27 22 C28.98 21.34 30.96 20.68 33 20 C34.76462683 23.08809695 35 24.23312136 35 28 C34.34 28 33.68 28 33 28 C31.64850944 33.1602367 32.53853813 35.38475899 35 40 C34.67 40.99 34.34 41.98 34 43 C33.45472656 41.90042969 32.90945312 40.80085938 32.34765625 39.66796875 C25.84422181 26.80830895 18.50492682 16.84202666 7.578125 7.2890625 C4.94685236 4.95281134 2.46534182 2.5096825 0 0 Z " fill="#1D7E78" transform="translate(82,138)"/>
<path d="M0 0 C0.99 0 1.98 0 3 0 C3.44988281 0.66515625 3.89976563 1.3303125 4.36328125 2.015625 C4.90339844 2.67046875 5.44351563 3.3253125 6 4 C8.52653421 4.26725096 8.52653421 4.26725096 11.1875 3.75 C12.08855469 3.62109375 12.98960938 3.4921875 13.91796875 3.359375 C14.60503906 3.24078125 15.29210937 3.1221875 16 3 C16.33 3.99 16.66 4.98 17 6 C17.66 6.33 18.32 6.66 19 7 C18.67 9.31 18.34 11.62 18 14 C18.66 12.68 19.32 11.36 20 10 C22 12 22 12 22 15 C22.66 14.01 23.32 13.02 24 12 C26.625 11.3125 26.625 11.3125 29 11 C31.70582788 14.83325617 32.32613618 17.32538149 32 22 C30.02 22.99 30.02 22.99 28 24 C28.33 24.99 28.66 25.98 29 27 C29.66 27 30.32 27 31 27 C31 29.31 31 31.62 31 34 C28.01541902 31.17940698 25.73127956 28.27355892 23.4375 24.875 C17.46292864 16.54175242 9.8521471 9.95284424 1.36328125 4.25390625 C0.91339844 3.84011719 0.46351562 3.42632812 0 3 C0 2.01 0 1.02 0 0 Z " fill="#208380" transform="translate(80,349)"/>
<path d="M0 0 C0.66 0 1.32 0 2 0 C2.33 2.64 2.66 5.28 3 8 C3.33 6.35 3.66 4.7 4 3 C4.66 3 5.32 3 6 3 C6.18175781 3.84884766 6.18175781 3.84884766 6.3671875 4.71484375 C6.53476562 5.44832031 6.70234375 6.18179688 6.875 6.9375 C7.11863281 8.03384766 7.11863281 8.03384766 7.3671875 9.15234375 C7.82961523 11.20700294 7.82961523 11.20700294 10 12 C10.12375 13.134375 10.2475 14.26875 10.375 15.4375 C10.58125 16.613125 10.7875 17.78875 11 19 C12.86644906 20.18330183 12.86644906 20.18330183 15 21 C16.625 23.5 16.625 23.5 18 26 C18.66 26.66 19.32 27.32 20 28 C19.01 28.99 18.02 29.98 17 31 C16.505 28.525 16.505 28.525 16 26 C14.02 25.34 12.04 24.68 10 24 C9.67 24.99 9.34 25.98 9 27 C8.01 26.01 7.02 25.02 6 24 C5.67 25.98 5.34 27.96 5 30 C3 29 3 29 2.21875 27.1796875 C1.47296147 24.78830036 0.73200272 22.39564527 0 20 C-0.391875 18.88625 -0.78375 17.7725 -1.1875 16.625 C-2.27360771 11.77928867 -2.55775339 6.94596019 -2 2 C-1.34 1.34 -0.68 0.68 0 0 Z M8 21 C9 24 9 24 9 24 Z " fill="#19807C" transform="translate(21,136)"/>
<path d="M0 0 C0.93134262 -0.00151566 1.86268524 -0.00303131 2.82225037 -0.0045929 C3.84782547 -0.0010228 4.87340057 0.0025473 5.93005371 0.00622559 C7.00767471 0.00625076 8.08529572 0.00627594 9.1955719 0.00630188 C12.79133786 0.00813484 16.38703624 0.01768681 19.98278809 0.02770996 C22.51407854 0.03149543 25.04536924 0.03511412 27.57666016 0.03857422 C54.16560017 0.08714805 80.75312583 0.323212 107.34069824 0.58502197 C113.72658476 0.64730753 120.11250017 0.706486 126.49841309 0.76599121 C138.85781674 0.88158393 151.21718707 1.00037764 163.57653809 1.12145996 C163.57653809 1.45145996 163.57653809 1.78145996 163.57653809 2.12145996 C80.41653809 2.61645996 80.41653809 2.61645996 -4.42346191 3.12145996 C-1.78346191 5.76145996 0.85653809 8.40145996 3.57653809 11.12145996 C-0.05222058 11.12145996 -1.44085544 9.89352002 -4.12658691 7.56677246 C-5.92344949 5.5642449 -6.27222614 3.76808602 -6.42346191 1.12145996 C-4.05541661 -0.06256269 -2.64122367 -0.00232067 0 0 Z " fill="#FEF8EA" transform="translate(55.4234619140625,46.8785400390625)"/>
<path d="M0 0 C2.35098964 2.9525664 4.02654538 5.96288256 5.75 9.3125 C13.78409772 23.13587402 26.50710693 32.87175116 40 41 C40.96679688 41.58265625 41.93359375 42.1653125 42.9296875 42.765625 C43.61289063 43.17296875 44.29609375 43.5803125 45 44 C44.01 44.495 44.01 44.495 43 45 C40.43406472 43.58760023 38.0447667 41.96770436 35.60546875 40.34765625 C32.74103239 38.86605124 31.17125067 38.7431549 28 39 C25 39 25 39 23 38 C22.67 38.66 22.34 39.32 22 40 C19 38 19 38 18 37 C16.67479497 36.31731862 15.34187818 35.6492959 14 35 C14.33 34.34 14.66 33.68 15 33 C15.66 33 16.32 33 17 33 C17 32.34 17 31.68 17 31 C16.360625 30.7525 15.72125 30.505 15.0625 30.25 C13 29 13 29 12.5 27.25 C12.335 26.5075 12.17 25.765 12 25 C9.88085182 21.46808637 8.44818588 19.29879059 5 17 C4.3125 13.375 4.3125 13.375 4 10 C3.01 9.67 2.02 9.34 1 9 C0.67 6.03 0.34 3.06 0 0 Z " fill="#247670" transform="translate(27,138)"/>
<path d="M0 0 C2.81484045 1.40742022 3.27483399 3.25557592 4.625 6.0625 C5.07101563 6.98160156 5.51703125 7.90070313 5.9765625 8.84765625 C6.31429687 9.55792969 6.65203125 10.26820313 7 11 C6.01 12.485 6.01 12.485 5 14 C4.48238249 16.30463034 4.11806762 18.60741297 3.7578125 20.94140625 C3 23 3 23 1.1171875 24.33984375 C-1 25 -1 25 -4 24 C-5.203125 22.2578125 -5.203125 22.2578125 -6.25 20.125 C-6.60578125 19.42632812 -6.9615625 18.72765625 -7.328125 18.0078125 C-8 16 -8 16 -7 13 C-6.67 14.32 -6.34 15.64 -6 17 C-4.68 17.33 -3.36 17.66 -2 18 C-2 17.01 -2 16.02 -2 15 C-2.99 15 -3.98 15 -5 15 C-6.4606285 12.35261084 -7 11.10551666 -7 8 C-6.01 7.34 -5.02 6.68 -4 6 C-3.27034634 3.43717258 -3.27034634 3.43717258 -3 1 C-2.01 0.67 -1.02 0.34 0 0 Z " fill="#0B5D58" transform="translate(27,172)"/>
<path d="M0 0 C1 2 1 2 -1 10 C26.72 10 54.44 10 83 10 C82.67 10.66 82.34 11.32 82 12 C33.41333597 13.09607228 33.41333597 13.09607228 15.09155273 13.17724609 C13.09680018 13.18732666 11.10210261 13.20686195 9.10742188 13.2265625 C7.92857422 13.22785156 6.74972656 13.22914063 5.53515625 13.23046875 C4.528479 13.23457764 3.52180176 13.23868652 2.48461914 13.24291992 C0 13 0 13 -3 11 C-2.88590407 9.54077307 -2.75834456 8.08259402 -2.625 6.625 C-2.55539063 5.81289063 -2.48578125 5.00078125 -2.4140625 4.1640625 C-2 2 -2 2 0 0 Z " fill="#EAE5CF" transform="translate(136,400)"/>
<path d="M0 0 C11.0277515 8.39068049 18.81336726 20.2566838 24 33 C24 33.99 24 34.98 24 36 C20.625 36.125 20.625 36.125 17 36 C16.34 35.34 15.68 34.68 15 34 C15 33.01 15 32.02 15 31 C14.34 31 13.68 31 13 31 C13.19335938 30.4225 13.38671875 29.845 13.5859375 29.25 C14.07325589 26.60193027 13.66841706 25.45059421 12.625 23 C11.514748 20.34369614 10.66630014 17.80071923 10 15 C9.67 14.01 9.34 13.02 9 12 C8.01 12.33 7.02 12.66 6 13 C3.64811553 12.40206327 1.31074405 11.74118205 -1 11 C-0.67 10.34 -0.34 9.68 0 9 C2.31 9.33 4.62 9.66 7 10 C6.57847656 9.52949219 6.15695313 9.05898437 5.72265625 8.57421875 C5.17480469 7.95160156 4.62695312 7.32898438 4.0625 6.6875 C3.51722656 6.07261719 2.97195312 5.45773438 2.41015625 4.82421875 C1 3 1 3 0 0 Z " fill="#065953" transform="translate(100,203)"/>
<path d="M0 0 C14.85229445 6.81533858 24.57689243 27.4731136 30.16015625 42.0234375 C31.58306113 46.43113354 32.3690587 50.32525643 32 55 C31.5359375 54.0409375 31.5359375 54.0409375 31.0625 53.0625 C30.1654837 51.06389179 30.1654837 51.06389179 29 50 C28.95907063 47.66702567 28.95758277 45.33294775 29 43 C27.515 42.505 27.515 42.505 26 42 C26.33 40.68 26.66 39.36 27 38 C25.515 37.505 25.515 37.505 24 37 C24 36.34 24 35.68 24 35 C23.67 34.01 23.34 33.02 23 32 C23 32.66 23 33.32 23 34 C22.68521554 35.33783393 22.35412344 36.67203709 22 38 C21.34 37.67 20.68 37.34 20 37 C20 36.01 20 35.02 20 34 C19.01 34 18.02 34 17 34 C17 32.68 17 31.36 17 30 C17.66 30 18.32 30 19 30 C18.505 29.05125 18.01 28.1025 17.5 27.125 C16 24 16 24 16 22 C15.34 22 14.68 22 14 22 C14 20.68 14 19.36 14 18 C13.34 18 12.68 18 12 18 C12 17.01 12 16.02 12 15 C11.34 15 10.68 15 10 15 C9.7525 13.7625 9.7525 13.7625 9.5 12.5 C7.6521119 8.18826109 5.07078627 5.80456013 1.6796875 2.63671875 C1.12539062 2.09660156 0.57109375 1.55648437 0 1 C0 0.67 0 0.34 0 0 Z " fill="#115851" transform="translate(96,95)"/>
<path d="M0 0 C0.33 0 0.66 0 1 0 C1.46044242 15.24064425 1.25683183 29.29112572 -3 44 C-4.98 44.495 -4.98 44.495 -7 45 C-7.19634033 44.42556152 -7.39268066 43.85112305 -7.5949707 43.25927734 C-8.4964936 40.62968104 -9.40443967 38.00234558 -10.3125 35.375 C-10.62123047 34.47136719 -10.92996094 33.56773437 -11.24804688 32.63671875 C-12.58902816 28.76904641 -13.93268303 25.13228737 -15.79296875 21.4765625 C-16.39044922 20.25066406 -16.39044922 20.25066406 -17 19 C-16.67 18.34 -16.34 17.68 -16 17 C-13.525 17.99 -13.525 17.99 -11 19 C-10.67 18.34 -10.34 17.68 -10 17 C-8.3144444 20.0060089 -7.60553629 22.57691127 -7.1484375 25.984375 C-7.01953125 26.91894531 -6.890625 27.85351562 -6.7578125 28.81640625 C-6.63148437 29.78449219 -6.50515625 30.75257813 -6.375 31.75 C-6.2409375 32.73355469 -6.106875 33.71710938 -5.96875 34.73046875 C-5.63949232 37.15286456 -5.31681523 39.57595084 -5 42 C-4.51526322 40.31409158 -4.03751074 38.62617455 -3.5625 36.9375 C-3.29566406 35.99777344 -3.02882813 35.05804688 -2.75390625 34.08984375 C-0.93633198 26.64061447 -0.71366611 19.19102294 -0.4375 11.5625 C-0.39431641 10.44939453 -0.35113281 9.33628906 -0.30664062 8.18945312 C-0.20120112 5.45974156 -0.09907971 2.72994857 0 0 Z " fill="#85B6B4" transform="translate(128,366)"/>
<path d="M0 0 C0.33 0 0.66 0 1 0 C1.75092261 29.5478419 1.75092261 29.5478419 -4 43 C-4.33 43 -4.66 43 -5 43 C-6.07462534 34.00653358 -7.14121892 25.01720132 -8 16 C-7.01 15.34 -6.02 14.68 -5 14 C-5 14.99 -5 15.98 -5 17 C-3.68 17 -2.36 17 -1 17 C-0.67 11.39 -0.34 5.78 0 0 Z " fill="#085855" transform="translate(127,367)"/>
<path d="M0 0 C0.99 0 1.98 0 3 0 C3.12375 1.051875 3.2475 2.10375 3.375 3.1875 C3.81159573 6.8320198 3.81159573 6.8320198 5.02685547 9.35229492 C6.16772595 12.45634419 6.22783894 14.87434804 6.1953125 18.17578125 C6.18564453 19.91118164 6.18564453 19.91118164 6.17578125 21.68164062 C6.15902344 22.87982422 6.14226562 24.07800781 6.125 25.3125 C6.11597656 26.53001953 6.10695312 27.74753906 6.09765625 29.00195312 C6.07413037 32.00150274 6.04125653 35.00065044 6 38 C5.34 38 4.68 38 4 38 C3.89042969 38.63808594 3.78085938 39.27617187 3.66796875 39.93359375 C3.50941406 40.75988281 3.35085937 41.58617187 3.1875 42.4375 C3.03667969 43.26121094 2.88585937 44.08492187 2.73046875 44.93359375 C2.36888672 45.95646484 2.36888672 45.95646484 2 47 C0.515 47.495 0.515 47.495 -1 48 C-1.33 44.04 -1.66 40.08 -2 36 C-0.68 35.34 0.64 34.68 2 34 C1.97679688 33.30132812 1.95359375 32.60265625 1.9296875 31.8828125 C1.91164063 30.97273438 1.89359375 30.06265625 1.875 29.125 C1.85179688 28.22007812 1.82859375 27.31515625 1.8046875 26.3828125 C2 24 2 24 4 22 C3.67801034 18.90073181 3.67801034 18.90073181 3 16 C2.34 16 1.68 16 1 16 C1.01160156 15.43152344 1.02320312 14.86304688 1.03515625 14.27734375 C1.09223194 9.39329516 0.81956772 4.81496035 0 0 Z " fill="#15534E" transform="translate(122,138)"/>
<path d="M0 0 C12.2046915 4.42260598 23.01697906 16.07516315 31 26 C30.67 26.66 30.34 27.32 30 28 C29.01 27.01 28.02 26.02 27 25 C24.525 26.485 24.525 26.485 22 28 C21.67 27.01 21.34 26.02 21 25 C20.26436937 23.44122878 19.48996999 21.90043831 18.6875 20.375 C18.07455078 19.18003906 18.07455078 19.18003906 17.44921875 17.9609375 C16.15475039 15.82803092 16.15475039 15.82803092 13.83203125 15.2265625 C13.22746094 15.15179688 12.62289062 15.07703125 12 15 C12 14.34 12 13.68 12 13 C10.68 12.67 9.36 12.34 8 12 C8.33 11.01 8.66 10.02 9 9 C8.34 8.34 7.68 7.68 7 7 C6.01 8.485 6.01 8.485 5 10 C4.01 9.67 3.02 9.34 2 9 C2.33 8.01 2.66 7.02 3 6 C3.66 6 4.32 6 5 6 C5 5.34 5 4.68 5 4 C4.360625 3.896875 3.72125 3.79375 3.0625 3.6875 C2.381875 3.460625 1.70125 3.23375 1 3 C0.67 2.01 0.34 1.02 0 0 Z " fill="#4A7F7B" transform="translate(81,299)"/>
<path d="M0 0 C0.99 0.33 1.98 0.66 3 1 C4.07747152 3.39941137 4.97056227 5.70598429 5.8125 8.1875 C6.32899199 9.64431027 6.84859237 11.10002175 7.37109375 12.5546875 C7.63647949 13.29428711 7.90186523 14.03388672 8.17529297 14.79589844 C9.88002202 19.3519357 11.90742375 23.77064421 13.8984375 28.20703125 C15 31 15 31 15 34 C11.7457985 31.16569547 10.4793247 29.31392226 10 25 C9.34 26.32 8.68 27.64 8 29 C7.01 27.68 6.02 26.36 5 25 C4.34 25.33 3.68 25.66 3 26 C1.64560332 23.29120665 1.93498549 20.99066732 2 18 C2.66 18 3.32 18 4 18 C4.33 18.66 4.66 19.32 5 20 C5.99 20.33 6.98 20.66 8 21 C7.505 20.38125 7.01 19.7625 6.5 19.125 C5 17 5 17 5 15 C4.360625 14.814375 3.72125 14.62875 3.0625 14.4375 C1 13 1 13 0.25 9.375 C0.1675 8.26125 0.085 7.1475 0 6 C-0.66 6.66 -1.32 7.32 -2 8 C-1.125 1.125 -1.125 1.125 0 0 Z " fill="#50968E" transform="translate(16,224)"/>
<path d="M0 0 C0.66 0.33 1.32 0.66 2 1 C2 2.98 2 4.96 2 7 C2.66 7 3.32 7 4 7 C4.33 8.98 4.66 10.96 5 13 C5.99 13 6.98 13 8 13 C7.67 15.97 7.34 18.94 7 22 C4.69 22.33 2.38 22.66 0 23 C-3.72897196 8.43925234 -3.72897196 8.43925234 -3 2 C-2.01 1.34 -1.02 0.68 0 0 Z " fill="#18837D" transform="translate(20,24)"/>
<path d="M0 0 C21.45 0 42.9 0 65 0 C64.34 0.99 63.68 1.98 63 3 C60.81469727 3.36749268 60.81469727 3.36749268 58.06640625 3.35644531 C56.52339844 3.36094696 56.52339844 3.36094696 54.94921875 3.36553955 C53.27279297 3.34701935 53.27279297 3.34701935 51.5625 3.328125 C50.41265625 3.32625183 49.2628125 3.32437866 48.078125 3.32244873 C45.63685218 3.31571242 43.19559043 3.30176695 40.75439453 3.28125 C37.04319053 3.2503595 33.33241303 3.24030441 29.62109375 3.234375 C27.24739073 3.22519356 24.87369199 3.2148142 22.5 3.203125 C21.39857666 3.19887512 20.29715332 3.19462524 19.16235352 3.19024658 C12.71990619 3.13151546 6.39690428 2.77437385 0 2 C0 1.34 0 0.68 0 0 Z " fill="#C4A67E" transform="translate(143,401)"/>
<path d="M0 0 C3.8346145 2.80873062 7.61249473 5.60542997 11.125 8.8125 C16.54475265 13.57223594 22.89801287 17.19154756 29 21 C24.4146502 22.44140836 20.43166242 21.74554963 16 20 C14.25 17.5 14.25 17.5 13 15 C10.52869082 13.84478498 10.52869082 13.84478498 8 13 C6.1875 11.5 6.1875 11.5 5 10 C5 9.34 5 8.68 5 8 C3.35 8.33 1.7 8.66 0 9 C-1.125 2.25 -1.125 2.25 0 0 Z " fill="#448884" transform="translate(41,270)"/>
<path d="M0 0 C3.11029833 2.87990586 5.24590775 5.74019723 7.3125 9.4375 C7.84488281 10.36433594 8.37726563 11.29117188 8.92578125 12.24609375 C10.1417479 15.36339007 9.97729986 16.85092267 9 20 C8.34 20 7.68 20 7 20 C7 19.01 7 18.02 7 17 C6.01 17.33 5.02 17.66 4 18 C3.67 17.34 3.34 16.68 3 16 C2.401875 15.87625 1.80375 15.7525 1.1875 15.625 C-1.78203837 14.77656046 -3.04734823 13.35664868 -5 11 C-5.75 8.75 -5.75 8.75 -6 7 C-5.195625 6.5875 -4.39125 6.175 -3.5625 5.75 C-0.85890282 4.26547669 -0.85890282 4.26547669 -0.1875 1.8125 C-0.125625 1.214375 -0.06375 0.61625 0 0 Z " fill="#167E7A" transform="translate(104,244)"/>
<path d="M0 0 C0.33 0 0.66 0 1 0 C1.06058594 1.12277344 1.12117188 2.24554687 1.18359375 3.40234375 C1.60294982 10.96340965 2.04339834 18.4838441 3 26 C1.046875 25.4140625 1.046875 25.4140625 -1 24 C-1.609375 20.9609375 -1.609375 20.9609375 -1.75 17.375 C-1.80671875 16.18648437 -1.8634375 14.99796875 -1.921875 13.7734375 C-1.94765625 12.85820312 -1.9734375 11.94296875 -2 11 C-2.05878606 15.43744296 -2.09385813 19.87478373 -2.125 24.3125 C-2.14175781 25.55580078 -2.15851562 26.79910156 -2.17578125 28.08007812 C-2.21104628 34.79806703 -1.89233507 41.05401852 -0.43310547 47.62182617 C0.02356202 50.12937862 0.07187785 52.45682592 0 55 C-4.52923371 48.20614943 -4.38667069 39.14159534 -4.6875 31.1875 C-4.72657471 30.2291626 -4.76564941 29.2708252 -4.8059082 28.28344727 C-5.44766273 9.7818673 -5.44766273 9.7818673 -2 2 C-1.34 2 -0.68 2 0 2 C0 1.34 0 0.68 0 0 Z " fill="#80ACA9" transform="translate(16,17)"/>
<path d="M0 0 C0.33 0.66 0.66 1.32 1 2 C1.33 1.34 1.66 0.68 2 0 C2.66 0 3.32 0 4 0 C4 0.66 4 1.32 4 2 C4.66 2.33 5.32 2.66 6 3 C6 3.99 6 4.98 6 6 C6.99 6 7.98 6 9 6 C9 6.66 9 7.32 9 8 C11.50357861 7.1654738 13.66785852 6.20628008 16 5 C18.5 7.125 18.5 7.125 21 10 C21.25 13.1875 21.25 13.1875 21 16 C21.33 16.66 21.66 17.32 22 18 C20.35 17.34 18.7 16.68 17 16 C17 15.34 17 14.68 17 14 C16.41283203 13.87544434 15.82566406 13.75088867 15.22070312 13.62255859 C13.01581224 13.00443285 11.41933643 12.221187 9.46875 11.0390625 C8.82292969 10.64976562 8.17710938 10.26046875 7.51171875 9.859375 C6.84785156 9.45203125 6.18398438 9.0446875 5.5 8.625 C4.83613281 8.22539062 4.17226563 7.82578125 3.48828125 7.4140625 C0.20000879 5.4187834 -2.97798983 3.38985498 -6 1 C-4 0 -4 0 0 0 Z " fill="#257571" transform="translate(56,332)"/>
<path d="M0 0 C3.73438914 0.42214834 5.62756783 2.16641868 8.25 4.75 C8.95640625 5.42546875 9.6628125 6.1009375 10.390625 6.796875 C12.30898483 9.42297924 12.33352331 10.8204111 12 14 C12.66 14 13.32 14 14 14 C14 14.99 14 15.98 14 17 C14.66 17 15.32 17 16 17 C16.33 18.98 16.66 20.96 17 23 C16.01 23 15.02 23 14 23 C14 22.34 14 21.68 14 21 C13.34 21 12.68 21 12 21 C9.49187986 18.49187986 8.12355198 16.37065593 7 13 C6.01 13 5.02 13 4 13 C4 12.34 4 11.68 4 11 C3.34 10.67 2.68 10.34 2 10 C2.66 9.34 3.32 8.68 4 8 C3.34 7.01 2.68 6.02 2 5 C1.01 5.495 1.01 5.495 0 6 C-0.38218767 4.34385343 -0.71395102 2.67542976 -1 1 C-0.67 0.67 -0.34 0.34 0 0 Z " fill="#145D58" transform="translate(94,96)"/>
<path d="M0 0 C3 1.8125 3 1.8125 6 4 C6 4.99 6 5.98 6 7 C6.99 7.33 7.98 7.66 9 8 C9 8.66 9 9.32 9 10 C9.66 10 10.32 10 11 10 C11.99 14.62 12.98 19.24 14 24 C14.66 24 15.32 24 16 24 C16.33 21.69 16.66 19.38 17 17 C17.33 17 17.66 17 18 17 C17.88557539 18.60495567 17.75805306 20.20898119 17.625 21.8125 C17.55539063 22.70582031 17.48578125 23.59914063 17.4140625 24.51953125 C17 27 17 27 15 30 C14.01 30 13.02 30 12 30 C11.63648437 28.90042969 11.27296875 27.80085938 10.8984375 26.66796875 C8.21036174 18.70740637 5.42205762 11.26012241 1.1015625 4.00390625 C0 2 0 2 0 0 Z " fill="#307B75" transform="translate(109,270)"/>
<path d="M0 0 C0.66 0 1.32 0 2 0 C2 0.66 2 1.32 2 2 C3.98 2.99 5.96 3.98 8 5 C8.02696009 7.7708983 8.04681952 10.5415345 8.0625 13.3125 C8.07087891 14.09818359 8.07925781 14.88386719 8.08789062 15.69335938 C8.09111328 16.45068359 8.09433594 17.20800781 8.09765625 17.98828125 C8.10289307 18.68477783 8.10812988 19.38127441 8.11352539 20.09887695 C8 22 8 22 7 25 C6.01 25.33 5.02 25.66 4 26 C3.32754163 22.41772843 2.66304461 18.8340249 2 15.25 C1.80921875 14.23421875 1.6184375 13.2184375 1.421875 12.171875 C1.15117188 10.70234375 1.15117188 10.70234375 0.875 9.203125 C0.70742187 8.30239258 0.53984375 7.40166016 0.3671875 6.47363281 C0 4 0 4 0 0 Z " fill="#0D5754" transform="translate(118,269)"/>
<path d="M0 0 C0.33 0 0.66 0 1 0 C0.98428955 0.84183838 0.9685791 1.68367676 0.95239258 2.55102539 C0.90097749 5.70253182 0.8635112 8.85382299 0.83520508 12.00561523 C0.82020591 13.36441117 0.79979962 14.72315941 0.77368164 16.08178711 C0.4894093 26.46694127 0.4894093 26.46694127 4 36 C5.38768805 39.72484688 6 41.97858538 6 46 C7.32 46.66 8.64 47.32 10 48 C9.67 51.63 9.34 55.26 9 59 C8.01 58.67 7.02 58.34 6 58 C5.855625 57.195625 5.71125 56.39125 5.5625 55.5625 C5.25864751 53.07896294 5.25864751 53.07896294 4 52 C3.95919217 50.00041636 3.95745644 47.99954746 4 46 C3.34 45.67 2.68 45.34 2 45 C2 42.36 2 39.72 2 37 C1.34 37 0.68 37 0 37 C-0.73823639 32.37740858 -1.12811512 27.94131742 -1.1328125 23.26171875 C-1.13410156 22.03001953 -1.13539062 20.79832031 -1.13671875 19.52929688 C-1.13285156 18.26150391 -1.12898437 16.99371094 -1.125 15.6875 C-1.12886719 14.40037109 -1.13273438 13.11324219 -1.13671875 11.78710938 C-1.13542969 10.56185547 -1.13414063 9.33660156 -1.1328125 8.07421875 C-1.13168457 6.95619873 -1.13055664 5.83817871 -1.12939453 4.6862793 C-1 2 -1 2 0 0 Z " fill="#16514D" transform="translate(14,240)"/>
<path d="M0 0 C0.33 0 0.66 0 1 0 C2.67541155 15.55415853 0.94096692 29.89296014 -3 45 C-4.98 45.495 -4.98 45.495 -7 46 C-8.75734451 41.02638346 -10.32584613 36.2584002 -11 31 C-8.53721199 33.46278801 -8.00228745 35.70676982 -7 39 C-6.87625 38.236875 -6.7525 37.47375 -6.625 36.6875 C-6 34 -6 34 -4 31 C-3.855625 30.29875 -3.71125 29.5975 -3.5625 28.875 C-3.376875 28.25625 -3.19125 27.6375 -3 27 C-2.01 26.67 -1.02 26.34 0 26 C0 17.42 0 8.84 0 0 Z " fill="#8DB1B0" transform="translate(128,150)"/>
<path d="M0 0 C1.32 0 2.64 0 4 0 C5.42944945 2.35438733 6.08661261 3.48032433 5.625 6.25 C5.41875 6.8275 5.2125 7.405 5 8 C4.34 5.69 3.68 3.38 3 1 C2.34 1 1.68 1 1 1 C-1.00135203 11.1854523 -1.22286974 21.33822954 -1.25 31.6875 C-1.25499512 32.36137756 -1.25999023 33.03525513 -1.26513672 33.72955322 C-1.27697296 35.67773912 -1.27157753 37.62600599 -1.265625 39.57421875 C-1.26336914 40.71463623 -1.26111328 41.85505371 -1.25878906 43.0300293 C-1.00311756 45.96422153 -0.33672922 47.44790788 1 50 C0.625 53.75 0.625 53.75 0 57 C0.99 57.33 1.98 57.66 3 58 C2.979375 59.03125 2.95875 60.0625 2.9375 61.125 C2.99276661 64.55152969 3.34550715 67.64572414 4 71 C-3.66875711 63.33124289 -3.96897181 43.60460478 -4.01123047 33.24755859 C-3.58851319 7.17702637 -3.58851319 7.17702637 0 0 Z " fill="#CAE6E4" transform="translate(15,114)"/>
<path d="M0 0 C0.99 0.495 0.99 0.495 2 1 C2.35846209 4.04012153 2.44436533 7.05881355 2.55859375 10.1171875 C3.04741451 13.30966289 3.67003099 13.94154499 6 16 C5.625 18.5 5.625 18.5 5 21 C5.33 21.99 5.66 22.98 6 24 C5.36474424 25.67889021 4.69313908 27.34416775 4 29 C3.62406934 30.9924325 3.28020455 32.9918674 3 35 C2.34 35 1.68 35 1 35 C0.15937224 30.63106263 -0.11732956 26.5164802 -0.09765625 22.0703125 C-0.09443359 20.78125 -0.09121094 19.4921875 -0.08789062 18.1640625 C-0.07953733 16.81770764 -0.07107241 15.47135348 -0.0625 14.125 C-0.0574783 12.75520996 -0.05291657 11.38541815 -0.04882812 10.015625 C-0.03707254 6.6770381 -0.02063964 3.33854185 0 0 Z " fill="#12524D" transform="translate(13,27)"/>
<path d="M0 0 C0.33 0 0.66 0 1 0 C1 4.29 1 8.58 1 13 C0.34 13 -0.32 13 -1 13 C-0.67 13.66 -0.34 14.32 0 15 C0.00585938 16.84082031 0.00585938 16.84082031 -0.15625 19.078125 C-0.20966553 19.90328613 -0.26308105 20.72844727 -0.31811523 21.57861328 C-0.37813721 22.4601709 -0.43815918 23.34172852 -0.5 24.25 C-0.96749981 31.79377778 -0.91674993 38.92538721 -0.05859375 46.4453125 C-0.03925781 47.28835937 -0.01992187 48.13140625 0 49 C-0.66 49.66 -1.32 50.32 -2 51 C-3.17694121 44.79244225 -3.1860722 38.74526312 -3.18530273 32.4440918 C-3.18746743 30.46724292 -3.20591427 28.49043353 -3.22460938 26.51367188 C-3.25472111 6.50944222 -3.25472111 6.50944222 0 0 Z " fill="#16514A" transform="translate(16,115)"/>
<path d="M0 0 C3.18019683 2.9238411 5.25351309 5.83401169 7.3125 9.625 C7.84488281 10.58664062 8.37726563 11.54828125 8.92578125 12.5390625 C9.28027344 13.35117187 9.63476562 14.16328125 10 15 C9.67 15.66 9.34 16.32 9 17 C8.01 16.01 7.02 15.02 6 14 C5.01 15.32 4.02 16.64 3 18 C1 17 1 17 0.3125 15.25 C-0.05449975 12.60760177 0.35668231 10.57327078 1 8 C0.01 8.33 -0.98 8.66 -2 9 C-2.99 8.01 -3.98 7.02 -5 6 C-4.67 5.01 -4.34 4.02 -4 3 C-1 2 -1 2 0 2 C0 1.34 0 0.68 0 0 Z " fill="#377772" transform="translate(112,327)"/>
<path d="M0 0 C2.62386487 3.06117568 3 3.73173127 3 8 C2.34 8 1.68 8 1 8 C-0.35149056 13.1602367 0.53853813 15.38475899 3 20 C2.67 20.99 2.34 21.98 2 23 C0.54090289 20.25040459 -0.91714242 17.50025279 -2.375 14.75 C-2.99375 13.58404297 -2.99375 13.58404297 -3.625 12.39453125 C-4.22441406 11.26337891 -4.22441406 11.26337891 -4.8359375 10.109375 C-5.38580322 9.07248535 -5.38580322 9.07248535 -5.94677734 8.01464844 C-6.98886031 6.02130846 -8.00042943 4.01494463 -9 2 C-6.94921875 1.77213542 -4.8984375 1.54427083 -2.84765625 1.31640625 C-0.98859771 1.18113386 -0.98859771 1.18113386 0 0 Z " fill="#5AA7A3" transform="translate(114,158)"/>
<path d="M0 0 C7.68255235 11.52382853 6.59205092 28.84721012 5 42 C4.67 42 4.34 42 4 42 C3.67 35.07 3.34 28.14 3 21 C2.01 21.33 1.02 21.66 0 22 C0.01160156 21.21496094 0.02320312 20.42992187 0.03515625 19.62109375 C0.13865946 12.75356383 0.13865946 12.75356383 -0.5625 5.9375 C-1 3 -1 3 0 0 Z " fill="#6F9794" transform="translate(124,239)"/>
<path d="M0 0 C1.84775223 2.77162834 2.33378618 3.86613046 2.8515625 6.984375 C2.98046875 7.75523437 3.109375 8.52609375 3.2421875 9.3203125 C3.36851563 10.12210938 3.49484375 10.92390625 3.625 11.75 C3.7590625 12.53632813 3.893125 13.32265625 4.03125 14.1328125 C4.79418896 18.81943753 5.13960894 23.25329595 5 28 C3.06283655 24.31283864 1.49777992 20.48204234 -0.0625 16.625 C-0.33126953 15.97789062 -0.60003906 15.33078125 -0.87695312 14.6640625 C-2.44391717 10.78768261 -3.47985077 7.14835068 -4 3 C-2.68 2.01 -1.36 1.02 0 0 Z " fill="#377D79" transform="translate(117,165)"/>
<path d="M0 0 C2.71202332 2.31188874 3.48680757 4.0189504 4.125 7.5 C4.62215154 10.11658703 5.15393365 12.46180095 6 15 C5.67 15.66 5.34 16.32 5 17 C2.0625 16.25 2.0625 16.25 -1 15 C-2.406617 12.09299153 -2.04092665 11.12277995 -1 8 C-1.66 8 -2.32 8 -3 8 C-3.66 6.68 -4.32 5.36 -5 4 C-4.0409375 3.8453125 -4.0409375 3.8453125 -3.0625 3.6875 C-2.381875 3.460625 -1.70125 3.23375 -1 3 C-0.67 2.01 -0.34 1.02 0 0 Z " fill="#18837D" transform="translate(112,368)"/>
<path d="M0 0 C2 1 2 1 2.74609375 2.85546875 C2.97425781 3.62503906 3.20242187 4.39460938 3.4375 5.1875 C4.63316523 9.00630834 6.09735081 12.46650865 8 16 C6.68 16.33 5.36 16.66 4 17 C3.67 16.01 3.34 15.02 3 14 C-0.12474627 15.63473516 -0.12474627 15.63473516 -0.6875 18.125 C-0.790625 18.74375 -0.89375 19.3625 -1 20 C-1.66 20 -2.32 20 -3 20 C-4.62549375 12.04921533 -4.62549375 12.04921533 -2.0625 7.75 C-1.381875 6.8425 -0.70125 5.935 0 5 C0.33709062 2.24741188 0.33709062 2.24741188 0 0 Z " fill="#055E58" transform="translate(22,55)"/>
<path d="M0 0 C2.625 0.1875 2.625 0.1875 5.625 2.1875 C6.8125 4.3125 6.8125 4.3125 7.625 6.1875 C8.615 6.1875 9.605 6.1875 10.625 6.1875 C10.295 7.5075 9.965 8.8275 9.625 10.1875 C10.945 10.5175 12.265 10.8475 13.625 11.1875 C9.86523659 12.30742953 7.82709112 12.72776567 4.19140625 11.09375 C-2.07215974 7.16524141 -2.07215974 7.16524141 -3.1953125 3.5390625 C-3.25460938 2.76304687 -3.31390625 1.98703125 -3.375 1.1875 C-2.375 0.1875 -2.375 0.1875 0 0 Z " fill="#13635E" transform="translate(43.375,320.8125)"/>
<path d="M0 0 C0.33 0 0.66 0 1 0 C1.33 12.21 1.66 24.42 2 37 C2.66 37 3.32 37 4 37 C4 39.64 4 42.28 4 45 C4.99 45.33 5.98 45.66 7 46 C7 47.65 7 49.3 7 51 C7.66 51 8.32 51 9 51 C9 51.66 9 52.32 9 53 C8.34 53 7.68 53 7 53 C7.33 54.65 7.66 56.3 8 58 C5.85883362 55.85883362 5.52166609 54.91832216 4.74609375 52.078125 C4.42415039 50.91023438 4.42415039 50.91023438 4.09570312 49.71875 C3.87849609 48.9040625 3.66128906 48.089375 3.4375 47.25 C3.21642578 46.45078125 2.99535156 45.6515625 2.76757812 44.828125 C0.89273873 37.94049749 -0.12636422 31.59105406 -0.09765625 24.4140625 C-0.0962413 23.71227875 -0.09482635 23.010495 -0.09336853 22.28744507 C-0.0878129 20.06658496 -0.07526892 17.84582916 -0.0625 15.625 C-0.05747926 14.11067855 -0.05291736 12.5963555 -0.04882812 11.08203125 C-0.03785807 7.38798748 -0.02062449 3.69400394 0 0 Z " fill="#9DBEBD" transform="translate(12,240)"/>
<path d="M0 0 C4.63138579 2.04562449 8.54795341 5.21054591 12.60351562 8.19140625 C16.60189055 11.0953514 20.66995267 13.61597906 25 16 C24.67 16.99 24.34 17.98 24 19 C23.01 19.33 22.02 19.66 21 20 C20.34 18.68 19.68 17.36 19 16 C18.01 16 17.02 16 16 16 C15.34 15.67 14.68 15.34 14 15 C14 14.34 14 13.68 14 13 C13.34 13 12.68 13 12 13 C12 12.34 12 11.68 12 11 C11.01 11 10.02 11 9 11 C8.79375 10.38125 8.5875 9.7625 8.375 9.125 C6.45224112 6.15346355 4.33405473 5.86975341 1 5 C0.67 3.35 0.34 1.7 0 0 Z " fill="#45837E" transform="translate(48,62)"/>
<path d="M0 0 C0.33 0 0.66 0 1 0 C1.75092261 29.5478419 1.75092261 29.5478419 -4 43 C-4.33 43 -4.66 43 -5 43 C-5.02712066 41.56260487 -5.04645067 40.12506137 -5.0625 38.6875 C-5.07410156 37.88699219 -5.08570312 37.08648437 -5.09765625 36.26171875 C-4.97579958 33.43951833 -4.11762323 31.26463823 -2.97705078 28.69848633 C-1.87757637 25.66188196 -1.58920094 23.04341365 -1.3671875 19.82421875 C-1.28339844 18.66728516 -1.19960937 17.51035156 -1.11328125 16.31835938 C-1.03464844 15.12017578 -0.95601563 13.92199219 -0.875 12.6875 C-0.78863281 11.46998047 -0.70226562 10.25246094 -0.61328125 8.99804688 C-0.40159273 5.99912611 -0.19743202 2.99988748 0 0 Z " fill="#1E504C" transform="translate(127,367)"/>
<path d="M0 0 C2.35098964 2.9525664 4.02654538 5.96288256 5.75 9.3125 C10.62770291 17.87228666 17.86644059 24.31357788 25 31 C22 31 22 31 20.52954102 29.82250977 C20.02608154 29.28424561 19.52262207 28.74598145 19.00390625 28.19140625 C18.44509766 27.60939453 17.88628906 27.02738281 17.31054688 26.42773438 C16.14895787 25.18827349 14.98749868 23.94869094 13.82617188 22.70898438 C13.26607422 22.12568359 12.70597656 21.54238281 12.12890625 20.94140625 C11.62431885 20.40201416 11.11973145 19.86262207 10.59985352 19.30688477 C8.76246284 17.80596118 7.31538975 17.40568661 5 17 C4.67 14.69 4.34 12.38 4 10 C3.01 9.67 2.02 9.34 1 9 C0.67 6.03 0.34 3.06 0 0 Z " fill="#9FD2CE" transform="translate(27,138)"/>
<path d="M0 0 C7.37360924 3.38356095 11.81416926 9.88474276 16.4375 16.3125 C16.88689941 16.93543945 17.33629883 17.55837891 17.79931641 18.20019531 C21 22.74494263 21 22.74494263 21 25 C18.49642139 24.1654738 16.33214148 23.20628008 14 22 C14 20.68 14 19.36 14 18 C13.34 18 12.68 18 12 18 C12 17.01 12 16.02 12 15 C11.34 15 10.68 15 10 15 C9.7525 13.7625 9.7525 13.7625 9.5 12.5 C7.6521119 8.18826109 5.07078627 5.80456013 1.6796875 2.63671875 C1.12539062 2.09660156 0.57109375 1.55648437 0 1 C0 0.67 0 0.34 0 0 Z " fill="#93B7B5" transform="translate(96,95)"/>
<path d="M0 0 C3.375 0.25 3.375 0.25 7 1 C8.5 2.875 8.5 2.875 9 5 C8.67 5.99 8.34 6.98 8 8 C9.65 8.33 11.3 8.66 13 9 C13.66 11.31 14.32 13.62 15 16 C15.66 16 16.32 16 17 16 C17 16.66 17 17.32 17 18 C9.58969113 14.98098527 4.62460217 7.19673739 0 1 C0 0.67 0 0.34 0 0 Z " fill="#457877" transform="translate(24,307)"/>
<path d="M0 0 C0.66 0.33 1.32 0.66 2 1 C2.103125 2.0725 2.20625 3.145 2.3125 4.25 C3.13829823 8.75435399 4.66757701 10.00081931 8 13 C8.33 13.99 8.66 14.98 9 16 C7.68 15.67 6.36 15.34 5 15 C5 14.34 5 13.68 5 13 C4.01 13 3.02 13 2 13 C1.34 13.66 0.68 14.32 0 15 C-2 13 -2 13 -2.1953125 10.6171875 C-2.17210937 9.71226562 -2.14890625 8.80734375 -2.125 7.875 C-2.10695313 6.96492187 -2.08890625 6.05484375 -2.0703125 5.1171875 C-2.04710937 4.41851562 -2.02390625 3.71984375 -2 3 C-1.34 3 -0.68 3 0 3 C0 2.01 0 1.02 0 0 Z " fill="#1E827B" transform="translate(15,229)"/>
<path d="M0 0 C0.99 0 1.98 0 3 0 C3 0.99 3 1.98 3 3 C3.66 3 4.32 3 5 3 C5.33 2.01 5.66 1.02 6 0 C7.16801612 3.50404837 6.59818813 5.41087121 6 9 C6.33 9.99 6.66 10.98 7 12 C6.34 12 5.68 12 5 12 C6.29144978 14.99992729 6.29144978 14.99992729 8 18 C8.99 18.33 9.98 18.66 11 19 C10.67 19.99 10.34 20.98 10 22 C8.140625 21.7890625 8.140625 21.7890625 6 21 C2.71637526 15.7097157 1.46616403 10.13911369 2 4 C1.34 3.67 0.68 3.34 0 3 C0 2.01 0 1.02 0 0 Z " fill="#13524D" transform="translate(15,168)"/>
<path d="M0 0 C0.66 0 1.32 0 2 0 C2 0.66 2 1.32 2 2 C3.32 2 4.64 2 6 2 C6.33 2.66 6.66 3.32 7 4 C8.65 4 10.3 4 12 4 C12 5.32 12 6.64 12 8 C14.64 8.66 17.28 9.32 20 10 C19.67 11.32 19.34 12.64 19 14 C14.11963459 12.32508169 10.00847052 9.63208039 5.6875 6.875 C4.94693359 6.40707031 4.20636719 5.93914062 3.44335938 5.45703125 C1.62658032 4.30835804 -0.18703037 3.15467631 -2 2 C-1.34 1.34 -0.68 0.68 0 0 Z " fill="#44807B" transform="translate(61,227)"/>
<path d="M0 0 C3 2 3 2 4 4 C4.99 4.33 5.98 4.66 7 5 C7 6.32 7 7.64 7 9 C7.94875 9.12375 8.8975 9.2475 9.875 9.375 C13 10 13 10 15 12 C14.67 12.99 14.34 13.98 14 15 C14 14.34 14 13.68 14 13 C13.2575 13.20625 12.515 13.4125 11.75 13.625 C8.67669159 14.04408751 7.57213134 13.61949011 5 12 C4.34 12.66 3.68 13.32 3 14 C2.67 12.35 2.34 10.7 2 9 C2.66 8.67 3.32 8.34 4 8 C4.66 8.33 5.32 8.66 6 9 C6 8.34 6 7.68 6 7 C3.69 6.67 1.38 6.34 -1 6 C-0.67 4.02 -0.34 2.04 0 0 Z " fill="#1F7671" transform="translate(42,58)"/>
<path d="M0 0 C3.91086359 1.65459614 6.76482202 4.29301434 10 7 C10.825 7.433125 11.65 7.86625 12.5 8.3125 C16.17705851 10.79451449 18.91212455 14.08254298 21 18 C21.16796875 20.7578125 21.16796875 20.7578125 21 23 C18.28674973 20.38702202 15.97252746 17.72459457 13.75 14.6875 C10.75495219 10.76094703 7.52375336 7.61853417 3.69921875 4.5078125 C2 3 2 3 0 0 Z " fill="#93C4C3" transform="translate(88,247)"/>
<path d="M0 0 C0.99 0.33 1.98 0.66 3 1 C2.96003906 2.29292969 2.92007812 3.58585938 2.87890625 4.91796875 C2.87988684 9.92584795 3.75711911 14.4643612 4.9375 19.3125 C5.11990234 20.09689453 5.30230469 20.88128906 5.49023438 21.68945312 C6.2951287 25.13440085 7.13848978 28.56880448 8 32 C7.01 31.67 6.02 31.34 5 31 C4.896875 30.21625 4.79375 29.4325 4.6875 28.625 C4.22404978 25.66954819 4.22404978 25.66954819 1 24 C0.671875 21.72265625 0.671875 21.72265625 0.75 19.0625 C0.76546875 18.18722656 0.7809375 17.31195313 0.796875 16.41015625 C1 14 1 14 2 11 C1.34 10.67 0.68 10.34 0 10 C0 6.7 0 3.4 0 0 Z " fill="#066058" transform="translate(15,128)"/>
<path d="M0 0 C0.66 0 1.32 0 2 0 C2.33 0.66 2.66 1.32 3 2 C3.9075 2.165 4.815 2.33 5.75 2.5 C10.21904886 4.56263794 11.1593199 7.36272812 13.21484375 11.6875 C13.60349609 12.8321875 13.60349609 12.8321875 14 14 C13.67 14.66 13.34 15.32 13 16 C9.7457985 13.16569547 8.4793247 11.31392226 8 7 C7.34 8.32 6.68 9.64 6 11 C5.01 9.68 4.02 8.36 3 7 C2.01 7.495 2.01 7.495 1 8 C-0.35439668 5.29120665 -0.06501451 2.99066732 0 0 Z " fill="#1E8580" transform="translate(18,242)"/>
<path d="M0 0 C1.4540625 0.0309375 1.4540625 0.0309375 2.9375 0.0625 C3.05867188 0.70058594 3.17984375 1.33867187 3.3046875 1.99609375 C3.47226562 2.82238281 3.63984375 3.64867187 3.8125 4.5 C4.05613281 5.73556641 4.05613281 5.73556641 4.3046875 6.99609375 C4.51351562 7.67800781 4.72234375 8.35992187 4.9375 9.0625 C5.5975 9.3925 6.2575 9.7225 6.9375 10.0625 C6.6075 11.3825 6.2775 12.7025 5.9375 14.0625 C1.25 10.44921875 1.25 10.44921875 -0.0625 9.0625 C-0.0625 8.0725 -0.0625 7.0825 -0.0625 6.0625 C-0.7225 6.0625 -1.3825 6.0625 -2.0625 6.0625 C-2.7225 4.4125 -3.3825 2.7625 -4.0625 1.0625 C-3.0625 0.0625 -3.0625 0.0625 0 0 Z " fill="#3B706A" transform="translate(29.0625,195.9375)"/>
<path d="M0 0 C1.77608134 3.22011269 2.73551098 6.37505157 3.625 9.9375 C3.88539062 10.95714844 4.14578125 11.97679687 4.4140625 13.02734375 C4.95696612 15.78167479 5.1132847 18.20392763 5 21 C4.01 21.33 3.02 21.66 2 22 C1.96261719 21.31292969 1.92523437 20.62585938 1.88671875 19.91796875 C1.82097656 19.01691406 1.75523438 18.11585938 1.6875 17.1875 C1.62949219 16.29417969 1.57148438 15.40085937 1.51171875 14.48046875 C0.92049363 11.61460654 0.01015171 10.99925658 -2 9 C-2.15359723 6.18039374 -1.54265907 3.80373851 -1 1 C-0.67 0.67 -0.34 0.34 0 0 Z " fill="#075C57" transform="translate(18,254)"/>
<path d="M0 0 C1.67542976 0.28604898 3.34385343 0.61781233 5 1 C4.96744792 3.01822917 4.93489583 5.03645833 4.90234375 7.0546875 C4.87350758 9.08185404 4.87350758 9.08185404 6 11 C6.039992 12.99960012 6.04346799 15.00047242 6 17 C5.01 17 4.02 17 3 17 C2.67 16.01 2.34 15.02 2 14 C2.66 14 3.32 14 4 14 C4 13.34 4 12.68 4 12 C3.01 12.33 2.02 12.66 1 13 C1.02320312 12.30132812 1.04640625 11.60265625 1.0703125 10.8828125 C1.08835937 9.97273437 1.10640625 9.06265625 1.125 8.125 C1.15980469 6.76761719 1.15980469 6.76761719 1.1953125 5.3828125 C1.24324836 2.81193006 1.24324836 2.81193006 -1 1 C-0.67 0.67 -0.34 0.34 0 0 Z " fill="#0D544F" transform="translate(119,238)"/>
<path d="M0 0 C0.99 0 1.98 0 3 0 C3.185625 1.5778125 3.185625 1.5778125 3.375 3.1875 C3.8133572 6.83523029 3.8133572 6.83523029 5.03125 9.375 C6.13418085 12.36358681 6.20145031 14.63981226 6.125 17.8125 C6.10695312 18.78832031 6.08890625 19.76414063 6.0703125 20.76953125 C6.03550781 21.87361328 6.03550781 21.87361328 6 23 C5.67 23 5.34 23 5 23 C4.34 20.69 3.68 18.38 3 16 C2.34 16 1.68 16 1 16 C1.01160156 15.43152344 1.02320312 14.86304688 1.03515625 14.27734375 C1.09223194 9.39329516 0.81956772 4.81496035 0 0 Z " fill="#19504D" transform="translate(122,138)"/>
<path d="M0 0 C5.87175335 4.6484714 10.72559484 9.82709281 15 16 C15 16.66 15 17.32 15 18 C13.35 17.67 11.7 17.34 10 17 C9.67 15.35 9.34 13.7 9 12 C8.01 12.33 7.02 12.66 6 13 C3.64811553 12.40206327 1.31074405 11.74118205 -1 11 C-0.67 10.34 -0.34 9.68 0 9 C2.31 9.33 4.62 9.66 7 10 C6.57847656 9.52949219 6.15695313 9.05898437 5.72265625 8.57421875 C5.17480469 7.95160156 4.62695312 7.32898438 4.0625 6.6875 C3.51722656 6.07261719 2.97195312 5.45773438 2.41015625 4.82421875 C1 3 1 3 0 0 Z " fill="#72A4A1" transform="translate(100,203)"/>
<path d="M0 0 C4.10958767 1.45044271 7.43258745 3.51110752 11 6 C9.68 6.33 8.36 6.66 7 7 C6.67 6.34 6.34 5.68 6 5 C5.01 5 4.02 5 3 5 C3.33 6.65 3.66 8.3 4 10 C2.02 10.33 0.04 10.66 -2 11 C-1.67 9.02 -1.34 7.04 -1 5 C-1.99 4.67 -2.98 4.34 -4 4 C-3.34 3.67 -2.68 3.34 -2 3 C-1.01 3.33 -0.02 3.66 1 4 C0.67 2.68 0.34 1.36 0 0 Z " fill="#10726C" transform="translate(70,292)"/>
<path d="M0 0 C1.48484412 0.39595843 2.9628831 0.81750706 4.4375 1.25 C5.26121094 1.48203125 6.08492187 1.7140625 6.93359375 1.953125 C9 3 9 3 9.78515625 5.109375 C9.85605469 5.73328125 9.92695312 6.3571875 10 7 C11.65 7.33 13.3 7.66 15 8 C15 8.66 15 9.32 15 10 C15.66 10 16.32 10 17 10 C16.67 10.99 16.34 11.98 16 13 C9.86970521 9.8696367 4.89056945 5.84621054 0 1 C0 0.67 0 0.34 0 0 Z " fill="#316F6B" transform="translate(35,210)"/>
<path d="M0 0 C1 2 2 4 3 6 C4.65 5.67 6.3 5.34 8 5 C8.33 5.99 8.66 6.98 9 8 C7.35 9.32 5.7 10.64 4 12 C1.70199436 10.85099718 0.61289162 10.01611453 -1 8 C-1.74386068 5.69011685 -2.42190703 3.35684056 -3 1 C-2.01 0.67 -1.02 0.34 0 0 Z " fill="#15534D" transform="translate(22,77)"/>
<path d="M0 0 C2.5654594 2.5654594 2.54046087 4.47686668 3 8 C4.65 8.33 6.3 8.66 8 9 C8.33 6.69 8.66 4.38 9 2 C9.33 2 9.66 2 10 2 C9.88557539 3.60495567 9.75805306 5.20898119 9.625 6.8125 C9.55539063 7.70582031 9.48578125 8.59914063 9.4140625 9.51953125 C9 12 9 12 7 15 C6.01 15 5.02 15 4 15 C3.32779649 13.06441401 2.66241923 11.12645628 2 9.1875 C1.62875 8.10855469 1.2575 7.02960938 0.875 5.91796875 C0 3 0 3 0 0 Z " fill="#A7C7C5" transform="translate(117,285)"/>
<path d="M0 0 C3.9036874 3.46994436 6.36588975 7.55224006 9 12 C8.34 12 7.68 12 7 12 C6.67 12.66 6.34 13.32 6 14 C4.35 13.67 2.7 13.34 1 13 C1.020625 11.96875 1.04125 10.9375 1.0625 9.875 C1.00723339 6.44847031 0.65449285 3.35427586 0 0 Z " fill="#2A837B" transform="translate(32,258)"/>
<path d="M0 0 C0.99 0.495 0.99 0.495 2 1 C2.185625 2.7015625 2.185625 2.7015625 2.375 4.4375 C2.684375 6.2009375 2.684375 6.2009375 3 8 C4.91764174 9.3762794 4.91764174 9.3762794 7 10 C8.35439668 12.70879335 8.06501451 15.00933268 8 18 C7.34 18 6.68 18 6 18 C5.67 16.35 5.34 14.7 5 13 C4.01 12.67 3.02 12.34 2 12 C1.67 11.34 1.34 10.68 1 10 C0.67 10 0.34 10 0 10 C0 6.7 0 3.4 0 0 Z " fill="#1E7C76" transform="translate(25,248)"/>
<path d="M0 0 C0.33 0.99 0.66 1.98 1 3 C1.99 3.66 2.98 4.32 4 5 C3.34 5 2.68 5 2 5 C2.33 6.98 2.66 8.96 3 11 C-0.3734229 9.55424733 -2.61595146 7.7950914 -5 5 C-5.75 2.75 -5.75 2.75 -6 1 C-4.02 0.67 -2.04 0.34 0 0 Z " fill="#195E57" transform="translate(39,101)"/>
<path d="M0 0 C0.99 0 1.98 0 3 0 C3.45375 0.639375 3.9075 1.27875 4.375 1.9375 C5.8662773 4.24764553 5.8662773 4.24764553 8.6875 4.75 C9.450625 4.8325 10.21375 4.915 11 5 C11.66 7.31 12.32 9.62 13 12 C9.78541276 10.51804579 7.06664104 8.70259491 4.25 6.5625 C3.45078125 5.96566406 2.6515625 5.36882812 1.828125 4.75390625 C0.92320313 3.88572266 0.92320313 3.88572266 0 3 C0 2.01 0 1.02 0 0 Z " fill="#47908B" transform="translate(80,349)"/>
<path d="M0 0 C0.33 0.99 0.66 1.98 1 3 C1.99 3.33 2.98 3.66 4 4 C3.690625 4.763125 3.38125 5.52625 3.0625 6.3125 C2.32106407 8.18789677 1.63771783 10.08684652 1 12 C0.34 12 -0.32 12 -1 12 C-1 11.01 -1 10.02 -1 9 C-2.32 9.33 -3.64 9.66 -5 10 C-4.67 9.34 -4.34 8.68 -4 8 C-3.34 8 -2.68 8 -2 8 C-2.226875 7.236875 -2.45375 6.47375 -2.6875 5.6875 C-2.790625 4.800625 -2.89375 3.91375 -3 3 C-1.5625 1.1875 -1.5625 1.1875 0 0 Z " fill="#0E5652" transform="translate(118,340)"/>
<path d="M0 0 C4.82360189 -0.19294408 8.49646738 0.24252386 13 2 C13 3.98 13 5.96 13 8 C8.27626146 6.37621488 4.05818166 3.89006982 0 1 C0 0.67 0 0.34 0 0 Z " fill="#418783" transform="translate(58,123)"/>
<path d="M0 0 C3.40348908 5.10523361 3.02157904 9.27669569 2.5625 15.25 C2.51029297 15.99507813 2.45808594 16.74015625 2.40429688 17.5078125 C2.2751783 19.33894861 2.13834886 21.16953813 2 23 C1.34 23 0.68 23 0 23 C-0.71880852 17.40435214 -1.1149628 12.574814 0 7 C0.03762951 4.66697011 0.04665734 2.33286681 0 0 Z " fill="#40706E" transform="translate(125,353)"/>
<path d="M0 0 C3.77788206 1.35598981 6.75747859 3.08160554 10 5.4375 C13.25512015 7.79237598 16.52960143 9.97353512 20 12 C19.01 12.495 19.01 12.495 18 13 C15.86328125 11.8203125 15.86328125 11.8203125 13.3125 10.125 C9.03099066 7.44051228 6.02107049 6.21830741 1 6 C1 5.34 1 4.68 1 4 C0.34 3.67 -0.32 3.34 -1 3 C-0.67 2.01 -0.34 1.02 0 0 Z " fill="#93C3C1" transform="translate(52,170)"/>
<path d="M0 0 C1 2 1 2 -1 10 C7.25 10 15.5 10 24 10 C24 10.33 24 10.66 24 11 C15.09 11 6.18 11 -3 11 C-2 2 -2 2 0 0 Z " fill="#C8BEA5" transform="translate(136,400)"/>
<path d="M0 0 C2.95680006 3.41636136 4.30885061 7.14325445 5.6875 11.375 C5.91244141 12.02210938 6.13738281 12.66921875 6.36914062 13.3359375 C7.69912592 17.34610591 8.24144736 20.78445965 8 25 C7.690625 24.360625 7.38125 23.72125 7.0625 23.0625 C6.1654837 21.06389179 6.1654837 21.06389179 5 20 C4.95907063 17.66702567 4.95758277 15.33294775 5 13 C4.01 12.67 3.02 12.34 2 12 C2.33 10.68 2.66 9.36 3 8 C2.01 7.67 1.02 7.34 0 7 C0 4.66666667 0 2.33333333 0 0 Z " fill="#88AEAC" transform="translate(120,125)"/>
<path d="M0 0 C0.66 0.99 1.32 1.98 2 3 C1.67 3.66 1.34 4.32 1 5 C-0.1577506 8.47325181 -0.06866652 11.36067448 0 15 C0.66 15.33 1.32 15.66 2 16 C1.01 16.33 0.02 16.66 -1 17 C-1.53341184 15.42085985 -2.05125763 13.83645613 -2.5625 12.25 C-2.85253906 11.36828125 -3.14257812 10.4865625 -3.44140625 9.578125 C-4.02457254 6.88658827 -3.98114349 5.54205358 -3 3 C-1.4375 1.25 -1.4375 1.25 0 0 Z " fill="#18524D" transform="translate(19,60)"/>
<path d="M0 0 C1.89213369 2.38573379 3.02391783 4.07175348 4 7 C5.25 8.75 5.25 8.75 7 10 C8.32 10 9.64 10 11 10 C11.66 11.32 12.32 12.64 13 14 C11.02 14.66 9.04 15.32 7 16 C6.01246936 14.27559635 5.03531194 12.54524974 4.0625 10.8125 C3.24458984 9.36810547 3.24458984 9.36810547 2.41015625 7.89453125 C1.09420667 5.19337158 0.42698113 2.95643899 0 0 Z " fill="#659794" transform="translate(18,78)"/>
<path d="M0 0 C1 3 1 3 1 5 C1.66 5 2.32 5 3 5 C3 5.66 3 6.32 3 7 C3.66 7.33 4.32 7.66 5 8 C3.75 9.5625 3.75 9.5625 2 11 C-0.1875 10.6875 -0.1875 10.6875 -2 10 C-3.125 4.375 -3.125 4.375 -2 1 C-1.34 0.67 -0.68 0.34 0 0 Z " fill="#0D5952" transform="translate(27,297)"/>
<path d="M0 0 C0.66 0 1.32 0 2 0 C2.2236337 1.41433206 2.42826476 2.83167618 2.625 4.25 C2.74101563 5.03890625 2.85703125 5.8278125 2.9765625 6.640625 C3.00358289 9.3606779 2.47334432 10.73485839 1 13 C0.01 13.495 0.01 13.495 -1 14 C-1.22142255 12.04310341 -1.4267568 10.08438048 -1.625 8.125 C-1.74101563 7.03445312 -1.85703125 5.94390625 -1.9765625 4.8203125 C-1.98429687 3.88960937 -1.99203125 2.95890625 -2 2 C-1.34 1.34 -0.68 0.68 0 0 Z " fill="#075B55" transform="translate(122,172)"/>
<path d="M0 0 C6.98295186 1.5457408 10.97221053 2.95831579 15 9 C13.35 9.33 11.7 9.66 10 10 C10.66 9.67 11.32 9.34 12 9 C11.34 8.01 10.68 7.02 10 6 C8.68 6.33 7.36 6.66 6 7 C6 6.34 6 5.68 6 5 C5.195625 4.731875 4.39125 4.46375 3.5625 4.1875 C2.716875 3.795625 1.87125 3.40375 1 3 C0.67 2.01 0.34 1.02 0 0 Z " fill="#45948F" transform="translate(33,53)"/>
<path d="M0 0 C6.09433114 2.48287565 9.95783623 8.03391309 14 13 C10 13 10 13 8 12 C8 11.01 8 10.02 8 9 C7.34 9 6.68 9 6 9 C4.97388051 7.34928604 3.97691857 5.68029994 3 4 C2.01834406 2.98198643 1.02408568 1.9753197 0 1 C0 0.67 0 0.34 0 0 Z " fill="#1C5856" transform="translate(94,200)"/>
<path d="M0 0 C4.67105792 1.55701931 8.08705685 4.08447373 12 7 C11.01 7.495 11.01 7.495 10 8 C9.01 7.67 8.02 7.34 7 7 C6.01 8.485 6.01 8.485 5 10 C4.01 9.67 3.02 9.34 2 9 C2.33 8.01 2.66 7.02 3 6 C3.66 6 4.32 6 5 6 C5 5.34 5 4.68 5 4 C4.360625 3.896875 3.72125 3.79375 3.0625 3.6875 C2.381875 3.460625 1.70125 3.23375 1 3 C0.67 2.01 0.34 1.02 0 0 Z " fill="#69A09E" transform="translate(81,299)"/>
<path d="M0 0 C4.21654356 1.48635116 7.62478605 3.61249159 11.3125 6.125 C12.38113281 6.84945313 13.44976562 7.57390625 14.55078125 8.3203125 C15.76314453 9.15175781 15.76314453 9.15175781 17 10 C13.61682513 10.97591583 11.4342662 10.85856655 8 10 C7.90847656 9.39542969 7.81695312 8.79085938 7.72265625 8.16796875 C6.82182833 5.465485 5.8053056 4.82885227 3.4375 3.3125 C2.27956918 2.55996146 1.13009755 1.79372387 0 1 C0 0.67 0 0.34 0 0 Z " fill="#99C6C4" transform="translate(53,281)"/>
<path d="M0 0 C0.99 0 1.98 0 3 0 C3 1.32 3 2.64 3 4 C3.66 4 4.32 4 5 4 C5 4.66 5 5.32 5 6 C7.97 6.495 7.97 6.495 11 7 C10.34 7.66 9.68 8.32 9 9 C8.01 8.34 7.02 7.68 6 7 C5.67 7.66 5.34 8.32 5 9 C2 7 2 7 1 6 C-0.32520503 5.31731862 -1.65812182 4.6492959 -3 4 C-2.67 3.34 -2.34 2.68 -2 2 C-1.34 2 -0.68 2 0 2 C0 1.34 0 0.68 0 0 Z " fill="#167D78" transform="translate(44,169)"/>
<path d="M0 0 C4.35102993 5.22123591 8.94979012 10.89958024 12 17 C10.35 17 8.7 17 7 17 C6.5875 15.96875 6.175 14.9375 5.75 13.875 C4.62394229 11.2080212 3.48350681 9.24739564 1.8125 6.8125 C0 4 0 4 0 0 Z " fill="#397C7A" transform="translate(28,38)"/>
<path d="M0 0 C0.99 0.33 1.98 0.66 3 1 C3.33 2.98 3.66 4.96 4 7 C2.35 7.33 0.7 7.66 -1 8 C-1.33 5.69 -1.66 3.38 -2 1 C-1.34 0.67 -0.68 0.34 0 0 Z " fill="#16857F" transform="translate(110,152)"/>
<path d="M0 0 C0 0.66 0 1.32 0 2 C0.99 2.33 1.98 2.66 3 3 C1.02 5.97 1.02 5.97 -1 9 C-1.99 8.34 -2.98 7.68 -4 7 C-4.1875 3.875 -4.1875 3.875 -4 1 C-2 0 -2 0 0 0 Z " fill="#1E7974" transform="translate(93,136)"/>
<path d="M0 0 C3.14958831 3.42346555 3.56179109 6.44262737 4 11 C3.34 10.34 2.68 9.68 2 9 C1.01 9.495 1.01 9.495 0 10 C-0.33 8.35 -0.66 6.7 -1 5 C-1.99 5.495 -1.99 5.495 -3 6 C-2.625 3.5625 -2.625 3.5625 -2 1 C-1.34 0.67 -0.68 0.34 0 0 Z " fill="#0E615A" transform="translate(97,314)"/>
<path d="M0 0 C0.93423645 3.01031744 1.04449911 3.86650268 0 7 C0.99 7.33 1.98 7.66 3 8 C2.979375 9.03125 2.95875 10.0625 2.9375 11.125 C2.99276661 14.55152969 3.34550715 17.64572414 4 21 C-0.04944102 16.95055898 -0.86021613 9.9919201 -1.25 4.4375 C-1 2 -1 2 0 0 Z " fill="#7FABAA" transform="translate(15,164)"/>
<path d="M0 0 C0.20625 0.639375 0.4125 1.27875 0.625 1.9375 C1.89538209 4.34925077 1.89538209 4.34925077 5.125 4.75 C6.07375 4.8325 7.0225 4.915 8 5 C7.34 7.31 6.68 9.62 6 12 C3.02404533 9.44918171 1.55997434 6.56565563 0 3 C0 2.01 0 1.02 0 0 Z " fill="#6E9793" transform="translate(19,185)"/>
<path d="M0 0 C2.13586678 3.20380017 2.23132175 4.01939967 2.125 7.6875 C2.10695313 8.49574219 2.08890625 9.30398437 2.0703125 10.13671875 C2.03550781 11.05904297 2.03550781 11.05904297 2 12 C1.71382813 11.36578125 1.42765625 10.7315625 1.1328125 10.078125 C-0.22655542 7.58438799 -1.41080309 7.03567876 -4 6 C-3.0022242 3.00667261 -2.2477975 2.05233685 0 0 Z " fill="#1D7F7B" transform="translate(117,165)"/>
<path d="M0 0 C0.928125 0.2784375 0.928125 0.2784375 1.875 0.5625 C4.04160178 1.23686176 4.04160178 1.23686176 6 0 C6.99 0.33 7.98 0.66 9 1 C9.33 2.65 9.66 4.3 10 6 C9.01 6.495 9.01 6.495 8 7 C5.875 6.0625 5.875 6.0625 4 5 C4 4.34 4 3.68 4 3 C2.68 2.34 1.36 1.68 0 1 C0 0.67 0 0.34 0 0 Z " fill="#157D76" transform="translate(94,144)"/>
<path d="M0 0 C0.804375 0.495 0.804375 0.495 1.625 1 C4.05052826 2.20211302 4.05052826 2.20211302 7.125 2 C8.07375 2 9.0225 2 10 2 C12.46278801 4.46278801 12.99771255 6.70676982 14 10 C11.84174363 9.03250577 10.2099391 8.21906689 8.5625 6.5 C7.00557292 4.81374436 7.00557292 4.81374436 4.4375 4 C2 3 2 3 0 0 Z " fill="#498F8A" transform="translate(83,243)"/>
<path d="M0 0 C2.6875 0.3125 2.6875 0.3125 5 1 C5.33 2.65 5.66 4.3 6 6 C2.30581799 6 0.22163822 4.71820705 -3 3 C-1.8125 1.4375 -1.8125 1.4375 0 0 Z " fill="#2D7F77" transform="translate(83,239)"/>
<path d="M0 0 C3.58513106 1.62184501 6.58992323 3.79256239 9.75 6.125 C11.22726563 7.21167969 11.22726563 7.21167969 12.734375 8.3203125 C13.48203125 8.87460938 14.2296875 9.42890625 15 10 C14.01 10.495 14.01 10.495 13 11 C10.94140625 10.0390625 10.94140625 10.0390625 8.5625 8.625 C5.99610694 7.11137774 3.8401697 5.94672323 1 5 C0.67 3.35 0.34 1.7 0 0 Z " fill="#ADD5D3" transform="translate(48,62)"/>
<path d="M0 0 C2.04795423 1.9626228 2.94976638 3.4277307 3.19921875 6.26953125 C3.18858877 8.51954383 3.12958525 10.75385562 3 13 C2.34 13 1.68 13 1 13 C-0.06775224 11.03533587 -1.06553465 9.03144641 -2 7 C-1.67 6.34 -1.34 5.68 -1 5 C-0.34 5.33 0.32 5.66 1 6 C0.67 4.02 0.34 2.04 0 0 Z " fill="#51837F" transform="translate(22,293)"/>
<path d="M0 0 C2.5 2.3125 2.5 2.3125 5 5 C5 5.99 5 6.98 5 8 C3.35 8.33 1.7 8.66 0 9 C-1.125 2.25 -1.125 2.25 0 0 Z " fill="#43918C" transform="translate(41,270)"/>
<path d="M0 0 C3.29967665 2.80472516 5.08459104 6.16918209 7 10 C6.67 10.99 6.34 11.98 6 13 C5.01 12.34 4.02 11.68 3 11 C3 10.01 3 9.02 3 8 C2.34 7.67 1.68 7.34 1 7 C1.33 6.01 1.66 5.02 2 4 C1.34 4 0.68 4 0 4 C0 2.68 0 1.36 0 0 Z " fill="#85AAA7" transform="translate(115,221)"/>
<path d="M0 0 C2.12508244 3.18762365 2.5020163 5.26512223 3 9 C2.01 9.33 1.02 9.66 0 10 C-0.99 9.01 -1.98 8.02 -3 7 C-1.125 2.25 -1.125 2.25 0 0 Z " fill="#407671" transform="translate(122,344)"/>
<path d="M0 0 C2.475 0.495 2.475 0.495 5 1 C5 2.32 5 3.64 5 5 C5.66 5 6.32 5 7 5 C7.33 6.65 7.66 8.3 8 10 C6.68 10 5.36 10 4 10 C3.79503906 9.44570312 3.59007813 8.89140625 3.37890625 8.3203125 C3.10949219 7.59585938 2.84007813 6.87140625 2.5625 6.125 C2.29566406 5.40570313 2.02882813 4.68640625 1.75390625 3.9453125 C1.02083146 1.96351155 1.02083146 1.96351155 0 0 Z " fill="#185750" transform="translate(110,220)"/>
<path d="M0 0 C2.0245738 1.93254772 3.42105792 3.63158688 5 6 C5.680625 6.165 6.36125 6.33 7.0625 6.5 C8.0215625 6.7475 8.0215625 6.7475 9 7 C9.33 7.99 9.66 8.98 10 10 C6.45094618 9.39159077 3.19912963 8.68842953 0 7 C-0.75 5 -0.75 5 -1 3 C-1.33 2.34 -1.66 1.68 -2 1 C-1.34 0.67 -0.68 0.34 0 0 Z " fill="#135B57" transform="translate(35,203)"/>
<path d="M0 0 C0.66 0.33 1.32 0.66 2 1 C2 1.99 2 2.98 2 4 C2.99 4 3.98 4 5 4 C5 4.66 5 5.32 5 6 C4.01 6.495 4.01 6.495 3 7 C2.34786708 9.02463255 2.34786708 9.02463255 2 11 C1.34 11 0.68 11 0 11 C-0.19491452 9.54263913 -0.38069358 8.08405407 -0.5625 6.625 C-0.66691406 5.81289062 -0.77132813 5.00078125 -0.87890625 4.1640625 C-1 2 -1 2 0 0 Z " fill="#0E5954" transform="translate(19,64)"/>
<path d="M0 0 C1.65 0 3.3 0 5 0 C5.66 1.32 6.32 2.64 7 4 C7.66 4 8.32 4 9 4 C8.34 5.32 7.68 6.64 7 8 C5.83035398 6.8572081 4.66435444 5.71068285 3.5 4.5625 C2.8503125 3.92441406 2.200625 3.28632812 1.53125 2.62890625 C0 1 0 1 0 0 Z " fill="#BFAD95" transform="translate(50,49)"/>
<path d="M0 0 C0.66 0 1.32 0 2 0 C2.125 6.75 2.125 6.75 1 9 C0.34 9 -0.32 9 -1 9 C-1.33 10.32 -1.66 11.64 -2 13 C-2.19294408 8.17639811 -1.75747614 4.50353262 0 0 Z " fill="#7FAAA4" transform="translate(15,10)"/>
<path d="M0 0 C1.32 0.33 2.64 0.66 4 1 C4 1.66 4 2.32 4 3 C4.66 3 5.32 3 6 3 C6 5.31 6 7.62 6 10 C3.66475218 7.74259377 1.81294927 5.7194239 0 3 C0 2.01 0 1.02 0 0 Z " fill="#66A19E" transform="translate(105,373)"/>
<path d="M0 0 C2.9375 0.8125 2.9375 0.8125 6 2 C6.33 2.99 6.66 3.98 7 5 C7.66 5.66 8.32 6.32 9 7 C8.01 7.99 7.02 8.98 6 10 C5.67 8.35 5.34 6.7 5 5 C3.68 4.67 2.36 4.34 1 4 C0.67 2.68 0.34 1.36 0 0 Z " fill="#157C74" transform="translate(32,157)"/>
<path d="M0 0 C3.97558263 1.74925636 7.8738284 3.96432284 11 7 C11.9375 10.3125 11.9375 10.3125 12 13 C10.85872377 11.85872377 9.71776264 10.71713121 8.578125 9.57421875 C7.42694314 8.42588635 6.26987213 7.28344889 5.109375 6.14453125 C4.47515625 5.51933594 3.8409375 4.89414063 3.1875 4.25 C2.58292969 3.65703125 1.97835937 3.0640625 1.35546875 2.453125 C0 1 0 1 0 0 Z " fill="#A0CBCA" transform="translate(93,147)"/>
<path d="M0 0 C0.185625 0.9590625 0.185625 0.9590625 0.375 1.9375 C0.684375 2.9584375 0.684375 2.9584375 1 4 C1.66 4.33 2.32 4.66 3 5 C2.67 5.33 2.34 5.66 2 6 C2.66 6.33 3.32 6.66 4 7 C4 8.32 4 9.64 4 11 C3.01 11 2.02 11 1 11 C-0.4216319 7.6828589 -1.39009109 4.55780196 -2 1 C-1.34 0.67 -0.68 0.34 0 0 Z " fill="#13504C" transform="translate(119,126)"/>
<path d="M0 0 C4.875 1.75 4.875 1.75 6 4 C5.01 5.32 4.02 6.64 3 8 C3 7.34 3 6.68 3 6 C1.68 5.67 0.36 5.34 -1 5 C-0.67 3.35 -0.34 1.7 0 0 Z " fill="#387873" transform="translate(90,306)"/>
<path d="M0 0 C0.598125 0.185625 1.19625 0.37125 1.8125 0.5625 C4.16408762 1.22093687 4.16408762 1.22093687 7 0 C7.28875 0.928125 7.5775 1.85625 7.875 2.8125 C8.8875 6.09791667 8.8875 6.09791667 11 9 C8.03469503 7.64199529 5.70868729 6.07571737 3.25 3.9375 C2.63640625 3.41027344 2.0228125 2.88304687 1.390625 2.33984375 C0.93171875 1.89769531 0.4728125 1.45554688 0 1 C0 0.67 0 0.34 0 0 Z " fill="#9ECDC9" transform="translate(82,138)"/>
<path d="M0 0 C1.65 0 3.3 0 5 0 C5 0.66 5 1.32 5 2 C6.98 2 8.96 2 11 2 C11 3.32 11 4.64 11 6 C7.61121488 6 6.60242783 5.35638802 3.8125 3.5625 C2.73935547 2.88380859 2.73935547 2.88380859 1.64453125 2.19140625 C1.10183594 1.79824219 0.55914062 1.40507812 0 1 C0 0.67 0 0.34 0 0 Z " fill="#7BB6B3" transform="translate(71,131)"/>
<path d="M0 0 C5.57142857 5.14285714 5.57142857 5.14285714 6 9 C3.49642139 8.1654738 1.33214148 7.20628008 -1 6 C-0.67 4.02 -0.34 2.04 0 0 Z " fill="#6D9592" transform="translate(111,111)"/>
<path d="M0 0 C1.9375 0.375 1.9375 0.375 4 1 C4.33 1.66 4.66 2.32 5 3 C6.64363134 3.72159424 8.31050386 4.39351421 10 5 C10 5.66 10 6.32 10 7 C8.35 7.33 6.7 7.66 5 8 C2 3.25 2 3.25 2 1 C1.34 0.67 0.68 0.34 0 0 Z " fill="#1C685F" transform="translate(70,79)"/>
<path d="M0 0 C0.66 0.33 1.32 0.66 2 1 C0.515 7.435 0.515 7.435 -1 14 C-1.66 14 -2.32 14 -3 14 C-3.34615998 8.34605369 -2.43425238 4.96993194 0 0 Z " fill="#105049" transform="translate(17,48)"/>
<path d="M0 0 C2.475 0.495 2.475 0.495 5 1 C5.33 2.65 5.66 4.3 6 6 C4.02 6 2.04 6 0 6 C0 4.02 0 2.04 0 0 Z " fill="#417570" transform="translate(118,233)"/>
<path d="M0 0 C2.35953094 2.35953094 2.49141413 3.77895617 3 7 C3.66 7 4.32 7 5 7 C5.33 8.98 5.66 10.96 6 13 C5.01 12.34 4.02 11.68 3 11 C3.33 10.34 3.66 9.68 4 9 C3.01 8.67 2.02 8.34 1 8 C-0.35439668 5.29120665 -0.06501451 2.99066732 0 0 Z " fill="#5D9B95" transform="translate(17,115)"/>
<path d="M0 0 C4.8 3.32307692 4.8 3.32307692 5.8125 6.75 C5.874375 7.4925 5.93625 8.235 6 9 C4.02 7.35 2.04 5.7 0 4 C-0.99 4.99 -1.98 5.98 -3 7 C-1.125 2.25 -1.125 2.25 0 0 Z " fill="#155551" transform="translate(107,323)"/>
<path d="M0 0 C0.99 0.66 1.98 1.32 3 2 C1.63016497 5.16115776 1.0109362 5.9927092 -2 8 C-3.125 3.25 -3.125 3.25 -2 1 C-1.34 1.33 -0.68 1.66 0 2 C0 1.34 0 0.68 0 0 Z " fill="#125A53" transform="translate(108,214)"/>
<path d="M0 0 C0.33 0.66 0.66 1.32 1 2 C1.66 2.28875 2.32 2.5775 3 2.875 C5 4 5 4 5.75 6.125 C5.8325 6.74375 5.915 7.3625 6 8 C6.66 8 7.32 8 8 8 C8 8.99 8 9.98 8 11 C7.01 10.67 6.02 10.34 5 10 C3.8125 6.9375 3.8125 6.9375 3 4 C2.01 4.33 1.02 4.66 0 5 C0 3.35 0 1.7 0 0 Z " fill="#186461" transform="translate(94,201)"/>
<path d="M0 0 C4.55384615 -0.36923077 4.55384615 -0.36923077 6.8125 1.5 C7.204375 1.995 7.59625 2.49 8 3 C7.34 3.66 6.68 4.32 6 5 C3.375 4.625 3.375 4.625 1 4 C0.67 2.68 0.34 1.36 0 0 Z " fill="#185A55" transform="translate(30,97)"/>
<path d="M0 0 C3 1 3 1 5 3 C5.99 3.33 6.98 3.66 8 4 C7.01 4.495 7.01 4.495 6 5 C5.67 5.99 5.34 6.98 5 8 C2.2175651 6.60878255 1.44789935 4.69835788 0 2 C0 1.34 0 0.68 0 0 Z " fill="#17615B" transform="translate(84,88)"/>
<path d="M0 0 C1.98 0.66 3.96 1.32 6 2 C6.33 1.34 6.66 0.68 7 0 C7 0.99 7 1.98 7 3 C6.01 3 5.02 3 4 3 C4.33 5.31 4.66 7.62 5 10 C2.35534962 6.8745041 1.15585285 3.91211733 0 0 Z " fill="#7AB8B5" transform="translate(111,383)"/>
<path d="M0 0 C0.99 0.33 1.98 0.66 3 1 C3 1.99 3 2.98 3 4 C2.34 4 1.68 4 1 4 C1 5.98 1 7.96 1 10 C0.01 9.67 -0.98 9.34 -2 9 C-1.125 1.125 -1.125 1.125 0 0 Z " fill="#10615C" transform="translate(107,326)"/>
<path d="M0 0 C2.4375 1.1875 2.4375 1.1875 5 3 C5.6875 5.4375 5.6875 5.4375 6 8 C6.37125 8.70125 6.7425 9.4025 7.125 10.125 C8 12 8 12 7 15 C5.82823482 12.87767021 4.66245215 10.75242209 3.5 8.625 C3.16613281 8.02171875 2.83226563 7.4184375 2.48828125 6.796875 C0 2.2265625 0 2.2265625 0 0 Z " fill="#A9D7D4" transform="translate(109,270)"/>
<path d="M0 0 C2.97 0 5.94 0 9 0 C8.67 0.99 8.34 1.98 8 3 C6.02 3.33 4.04 3.66 2 4 C1.34 2.68 0.68 1.36 0 0 Z " fill="#18756F" transform="translate(74,233)"/>
<path d="M0 0 C2.30889416 1.15444708 3.3406643 2.40868719 5 4.375 C5.515625 4.98085938 6.03125 5.58671875 6.5625 6.2109375 C8 8 8 8 10 11 C6.54457281 9.46425458 3.75129011 7.60257173 1 5 C0.1875 2.25 0.1875 2.25 0 0 Z " fill="#F6F0E6" transform="translate(49,48)"/>
<path d="M0 0 C2.39763185 2.39763185 2.34280586 3.33273498 2.625 6.625 C2.69976563 7.44226562 2.77453125 8.25953125 2.8515625 9.1015625 C2.90054687 9.72804688 2.94953125 10.35453125 3 11 C1.68 10.34 0.36 9.68 -1 9 C-1.125 2.25 -1.125 2.25 0 0 Z " fill="#045C58" transform="translate(16,32)"/>
<path d="M0 0 C1.32 0 2.64 0 4 0 C3.79375 0.7425 3.5875 1.485 3.375 2.25 C2.95591249 5.32330841 3.38050989 6.42786866 5 9 C2.5 7.875 2.5 7.875 0 6 C-0.3125 2.8125 -0.3125 2.8125 0 0 Z " fill="#197571" transform="translate(91,353)"/>
<path d="M0 0 C4.10958767 1.45044271 7.43258745 3.51110752 11 6 C9.68 6.33 8.36 6.66 7 7 C6.67 6.34 6.34 5.68 6 5 C4.35 5 2.7 5 1 5 C0.67 3.35 0.34 1.7 0 0 Z " fill="#7FAEAC" transform="translate(70,292)"/>
<path d="M0 0 C0.66 0.33 1.32 0.66 2 1 C2 3.64 2 6.28 2 9 C1.01 9.33 0.02 9.66 -1 10 C-1.125 3.375 -1.125 3.375 0 0 Z " fill="#175951" transform="translate(15,229)"/>
<path d="M0 0 C0.99 0 1.98 0 3 0 C4.38671875 1.75 4.38671875 1.75 5.6875 4 C6.12449219 4.7425 6.56148438 5.485 7.01171875 6.25 C7.33785156 6.8275 7.66398437 7.405 8 8 C5.07143541 6.56647994 2.44737492 5.18515618 0 3 C0 2.01 0 1.02 0 0 Z " fill="#6EA8A4" transform="translate(80,349)"/>
<path d="M0 0 C-0.33 1.32 -0.66 2.64 -1 4 C-4.37503669 2.8141763 -6.64722731 1.72426311 -9 -1 C-5.79937313 -2.60031344 -3.27728194 -1.03173691 0 0 Z " fill="#669A99" transform="translate(81,237)"/>
<path d="M0 0 C3 1 3 1 4.1875 3.0625 C4.455625 3.701875 4.72375 4.34125 5 5 C3.68 5.33 2.36 5.66 1 6 C1 5.34 1 4.68 1 4 C0.01 3.67 -0.98 3.34 -2 3 C-1.34 2.01 -0.68 1.02 0 0 Z " fill="#1B625F" transform="translate(85,193)"/>
<path d="M0 0 C1.32 0 2.64 0 4 0 C4 0.66 4 1.32 4 2 C5.65 2 7.3 2 9 2 C9.66 3.65 10.32 5.3 11 7 C8.525 6.01 8.525 6.01 6 5 C6 4.34 6 3.68 6 3 C5.38125 2.87625 4.7625 2.7525 4.125 2.625 C2 2 2 2 0 0 Z " fill="#6DA49D" transform="translate(67,343)"/>
<path d="M0 0 C1.98 1.65 3.96 3.3 6 5 C5.67 5.66 5.34 6.32 5 7 C4.01 6.01 3.02 5.02 2 4 C-0.475 5.485 -0.475 5.485 -3 7 C-2.690625 6.401875 -2.38125 5.80375 -2.0625 5.1875 C-0.89790296 2.91043228 -0.89790296 2.91043228 0 0 Z " fill="#6B9D9A" transform="translate(106,320)"/>
<path d="M0 0 C2.625 0.25 2.625 0.25 4.4375 1.75 C4.829375 2.245 5.22125 2.74 5.625 3.25 C3.975 2.92 2.325 2.59 0.625 2.25 C0.295 3.24 -0.035 4.23 -0.375 5.25 C-1.035 5.25 -1.695 5.25 -2.375 5.25 C-2.9375 3.3125 -2.9375 3.3125 -3.375 1.25 C-2.375 0.25 -2.375 0.25 0 0 Z " fill="#145E5A" transform="translate(43.375,320.75)"/>
<path d="M0 0 C1.65 0.33 3.3 0.66 5 1 C4.34 2.32 3.68 3.64 3 5 C1.35 5 -0.3 5 -2 5 C-1.34 3.35 -0.68 1.7 0 0 Z " fill="#147A76" transform="translate(90,241)"/>
<path d="M0 0 C0.99 0.33 1.98 0.66 3 1 C1.75023244 4.65316671 1.32901247 5.78065836 -2 8 C-1.125 1.125 -1.125 1.125 0 0 Z " fill="#8CAAA6" transform="translate(16,224)"/>
<path d="M0 0 C2.64465038 3.1254959 3.84414715 6.08788267 5 10 C3.68 9.67 2.36 9.34 1 9 C0.67 6.03 0.34 3.06 0 0 Z " fill="#8ABDB9" transform="translate(27,138)"/>
<path d="M0 0 C1.5625 1.25 1.5625 1.25 3 3 C2.6875 5.1875 2.6875 5.1875 2 7 C1.01 7 0.02 7 -1 7 C-1.04254356 5.00045254 -1.04080783 2.99958364 -1 1 C-0.67 0.67 -0.34 0.34 0 0 Z " fill="#527D7D" transform="translate(117,120)"/>
<path d="M0 0 C1.98 0 3.96 0 6 0 C6.66 1.98 7.32 3.96 8 6 C4.08597051 4.73058503 2.20927127 3.48832306 0 0 Z " fill="#6E9D99" transform="translate(42,112)"/>
<path d="M0 0 C0.33 0.66 0.66 1.32 1 2 C1.66 2.33 2.32 2.66 3 3 C1.02 3.99 1.02 3.99 -1 5 C-2.65 3.68 -4.3 2.36 -6 1 C-4 0 -4 0 0 0 Z " fill="#487E7D" transform="translate(56,332)"/>
<path d="M0 0 C1.9375 0.6875 1.9375 0.6875 4 2 C4.93580311 4.87939419 5.37245106 6.25509788 4 9 C1.49701566 6.06171403 0.53069061 3.82097239 0 0 Z " fill="#67A29D" transform="translate(104,261)"/>
<path d="M0 0 C1.9668026 1.9668026 2.9371637 3.5444659 4.1875 6 C4.55230469 6.70125 4.91710937 7.4025 5.29296875 8.125 C5.52628906 8.74375 5.75960938 9.3625 6 10 C5.67 10.66 5.34 11.32 5 12 C2.69857565 10.21825212 1.19965609 8.83695835 0.51171875 5.953125 C0.27676898 3.9753389 0.13248542 1.98728128 0 0 Z " fill="#8EC2BE" transform="translate(26,246)"/>
<path d="M0 0 C2.29633824 3.44450737 2.54016485 5.93812283 3 10 C1.68 9.34 0.36 8.68 -1 8 C-0.67 5.36 -0.34 2.72 0 0 Z " fill="#759C9B" transform="translate(124,239)"/>
<path d="M0 0 C2.31 0.66 4.62 1.32 7 2 C7.33 3.32 7.66 4.64 8 6 C4.08597051 4.73058503 2.20927127 3.48832306 0 0 Z " fill="#3F7171" transform="translate(35,210)"/>
<path d="M0 0 C0.33 0 0.66 0 1 0 C1 2.64 1 5.28 1 8 C0.34 8 -0.32 8 -1 8 C-1.33 8.99 -1.66 9.98 -2 11 C-2.05399736 9.54207116 -2.09279177 8.08357288 -2.125 6.625 C-2.15980469 5.40683594 -2.15980469 5.40683594 -2.1953125 4.1640625 C-2 2 -2 2 0 0 Z " fill="#1C8882" transform="translate(21,136)"/>
<path d="M0 0 C-0.99 1.485 -0.99 1.485 -2 3 C-4.625 3.1875 -4.625 3.1875 -7 3 C-7 2.01 -7 1.02 -7 0 C-3.98968256 -0.93423645 -3.13349732 -1.04449911 0 0 Z " fill="#137972" transform="translate(85,130)"/>
<path d="M0 0 C1.32 0.99 2.64 1.98 4 3 C3.34 4.98 2.68 6.96 2 9 C1.34 8.67 0.68 8.34 0 8 C-0.95067299 4.71585695 -1.10102197 3.30306592 0 0 Z " fill="#248079" transform="translate(17,121)"/>
<path d="M0 0 C0.33 0.66 0.66 1.32 1 2 C2.65 1.67 4.3 1.34 6 1 C6.33 1.99 6.66 2.98 7 4 C5.35 5.32 3.7 6.64 2 8 C1.34 7.67 0.68 7.34 0 7 C0.99 5.68 1.98 4.36 3 3 C2.01 3 1.02 3 0 3 C0 2.01 0 1.02 0 0 Z " fill="#0B5A52" transform="translate(24,81)"/>
<path d="M0 0 C4.75 1.875 4.75 1.875 7 3 C7.625 5.5625 7.625 5.5625 8 8 C6.85073734 7.04578192 5.70569459 6.08647955 4.5625 5.125 C3.92441406 4.59132813 3.28632812 4.05765625 2.62890625 3.5078125 C1 2 1 2 0 0 Z " fill="#6BA3A2" transform="translate(93,361)"/>
<path d="M0 0 C2.60608273 2.5162178 4.89381685 5.05134359 7 8 C6.67 8.66 6.34 9.32 6 10 C2.64888166 7.76592111 1.18446044 6.73784176 0.1875 2.75 C0.125625 1.8425 0.06375 0.935 0 0 Z " fill="#9DCCC8" transform="translate(32,258)"/>
<path d="M0 0 C0.33 0 0.66 0 1 0 C1.33 1.98 1.66 3.96 2 6 C2.66 6 3.32 6 4 6 C3.67 7.98 3.34 9.96 3 12 C2.01 11.34 1.02 10.68 0 10 C-0.29296875 7.6171875 -0.29296875 7.6171875 -0.1875 4.875 C-0.16042969 3.96492187 -0.13335937 3.05484375 -0.10546875 2.1171875 C-0.07066406 1.41851562 -0.03585937 0.71984375 0 0 Z " fill="#5B918F" transform="translate(13,232)"/>
<path d="M0 0 C0.99 0.33 1.98 0.66 3 1 C3 2.66666667 3 4.33333333 3 6 C1.68 6 0.36 6 -1 6 C-1.625 4.125 -1.625 4.125 -2 2 C-1.34 1.34 -0.68 0.68 0 0 Z " fill="#0E5E5E" transform="translate(99,214)"/>
<path d="M0 0 C3.93673644 1.31224548 6.22719294 2.91910327 9 6 C6.36 5.67 3.72 5.34 1 5 C0.67 3.35 0.34 1.7 0 0 Z " fill="#8AB6B3" transform="translate(77,186)"/>
<path d="M0 0 C1.65 0 3.3 0 5 0 C5 1.65 5 3.3 5 5 C5.66 5.33 6.32 5.66 7 6 C5.68 5.67 4.36 5.34 3 5 C3 4.34 3 3.68 3 3 C2.01 2.67 1.02 2.34 0 2 C0 1.34 0 0.68 0 0 Z " fill="#1B645E" transform="translate(54,117)"/>
<path d="M0 0 C1.32 0.33 2.64 0.66 4 1 C4.33 2.32 4.66 3.64 5 5 C3.35 4.67 1.7 4.34 0 4 C0 2.68 0 1.36 0 0 Z " fill="#175D58" transform="translate(41,107)"/>
<path d="M0 0 C0.66 0 1.32 0 2 0 C2 0.66 2 1.32 2 2 C3.65 2 5.3 2 7 2 C7.33 3.65 7.66 5.3 8 7 C4.63718422 5.55879324 2.4480582 3.71035015 0 1 C0 0.67 0 0.34 0 0 Z " fill="#8CB5B2" transform="translate(34,105)"/>
<path d="M0 0 C1.98 0.66 3.96 1.32 6 2 C6 2.99 6 3.98 6 5 C5.01 5.66 4.02 6.32 3 7 C2.01 4.69 1.02 2.38 0 0 Z " fill="#75ABA7" transform="translate(66,75)"/>
<path d="M0 0 C1 2 1 2 0.44140625 4.1640625 C0.15136719 4.97617187 -0.13867188 5.78828125 -0.4375 6.625 C-0.72496094 7.44226563 -1.01242188 8.25953125 -1.30859375 9.1015625 C-1.53675781 9.72804688 -1.76492187 10.35453125 -2 11 C-2.33 11 -2.66 11 -3 11 C-2.88590407 9.54077307 -2.75834456 8.08259402 -2.625 6.625 C-2.55539063 5.81289063 -2.48578125 5.00078125 -2.4140625 4.1640625 C-2 2 -2 2 0 0 Z " fill="#F7F4E4" transform="translate(136,400)"/>
<path d="M0 0 C0.66 0 1.32 0 2 0 C2 0.66 2 1.32 2 2 C2.99 2.33 3.98 2.66 5 3 C5.33 4.32 5.66 5.64 6 7 C3.36 5.35 0.72 3.7 -2 2 C-1.34 1.34 -0.68 0.68 0 0 Z " fill="#3A706E" transform="translate(43,325)"/>
<path d="M0 0 C-0.66 1.32 -1.32 2.64 -2 4 C-4.475 3.01 -4.475 3.01 -7 2 C-7 1.34 -7 0.68 -7 0 C-4.3333581 -1.33332095 -2.83319697 -0.67102033 0 0 Z " fill="#115D5A" transform="translate(39,313)"/>
<path d="M0 0 C0.99 0.99 1.98 1.98 3 3 C2.01 4.485 2.01 4.485 1 6 C0.01 5.67 -0.98 5.34 -2 5 C-1.125 1.125 -1.125 1.125 0 0 Z " fill="#0C645D" transform="translate(88,305)"/>
<path d="M0 0 C1.65 0.33 3.3 0.66 5 1 C5.33 2.32 5.66 3.64 6 5 C3.49642139 4.1654738 1.33214148 3.20628008 -1 2 C-0.67 1.34 -0.34 0.68 0 0 Z " fill="#157672" transform="translate(50,284)"/>
<path d="M0 0 C2.9375 0.375 2.9375 0.375 6 1 C6.33 1.66 6.66 2.32 7 3 C6.34 3.66 5.68 4.32 5 5 C2.5 3.625 2.5 3.625 0 2 C0 1.34 0 0.68 0 0 Z " fill="#659A96" transform="translate(70,183)"/>
<path d="M0 0 C2.0625 0.6875 2.0625 0.6875 4 2 C4.75 4.125 4.75 4.125 5 6 C1.34683329 4.75023244 0.21934164 4.32901247 -2 1 C-1.34 0.67 -0.68 0.34 0 0 Z " fill="#286F69" transform="translate(82,134)"/>
<path d="M0 0 C1.98 0 3.96 0 6 0 C6.66 1.65 7.32 3.3 8 5 C4.62496331 3.8141763 2.35277269 2.72426311 0 0 Z " fill="#73A5A0" transform="translate(58,123)"/>
<path d="M0 0 C1.64826111 2.96687001 2.44271087 5.65626525 3 9 C0 8 0 8 -1.25 6.125 C-2 4 -2 4 -1 1 C-0.67 0.67 -0.34 0.34 0 0 Z " fill="#065F59" transform="translate(19,44)"/>
<path d="M0 0 C1.32 0.66 2.64 1.32 4 2 C4 2.99 4 3.98 4 5 C1.03 4.505 1.03 4.505 -2 4 C-1.34 2.68 -0.68 1.36 0 0 Z " fill="#246E6A" transform="translate(67,291)"/>
<path d="M0 0 C2.45823172 3.68734758 3.01242616 6.69699971 4 11 C2 9.4375 2 9.4375 0 7 C-0.25 3.25 -0.25 3.25 0 0 Z " fill="#8FC4C2" transform="translate(22,235)"/>
<path d="M0 0 C0 0.66 0 1.32 0 2 C0.66 2 1.32 2 2 2 C2.66 3.32 3.32 4.64 4 6 C0.62496331 4.8141763 -1.64722731 3.72426311 -4 1 C-2 0 -2 0 0 0 Z " fill="#679B97" transform="translate(63,227)"/>
<path d="M0 0 C3.91402949 1.26941497 5.79072873 2.51167694 8 6 C5.6875 5.8125 5.6875 5.8125 3 5 C1.1875 2.4375 1.1875 2.4375 0 0 Z " fill="#94BDBB" transform="translate(86,192)"/>
<path d="M0 0 C0.33 0.99 0.66 1.98 1 3 C0.34 3 -0.32 3 -1 3 C-0.690625 3.8971875 -0.690625 3.8971875 -0.375 4.8125 C0 7 0 7 -2 10 C-2.33 7.69 -2.66 5.38 -3 3 C-2.01 2.67 -1.02 2.34 0 2 C0 1.34 0 0.68 0 0 Z " fill="#38938F" transform="translate(26,136)"/>
<path d="M0 0 C0.33 0 0.66 0 1 0 C1 2.97 1 5.94 1 9 C0.01 9 -0.98 9 -2 9 C-1.34 6.03 -0.68 3.06 0 0 Z " fill="#1C5C54" transform="translate(16,115)"/>
<path d="M0 0 C1.65 1.65 3.3 3.3 5 5 C4.01 5.495 4.01 5.495 3 6 C1.02 4.68 -0.96 3.36 -3 2 C-2.01 1.34 -1.02 0.68 0 0 Z " fill="#78A4A1" transform="translate(53,117)"/>
<path d="M0 0 C1.9375 0.8125 1.9375 0.8125 4 2 C4.33 2.99 4.66 3.98 5 5 C4.01 5.33 3.02 5.66 2 6 C1.34 5.67 0.68 5.34 0 5 C0 3.35 0 1.7 0 0 Z " fill="#709D99" transform="translate(91,91)"/>
<path d="M0 0 C1.32 0.66 2.64 1.32 4 2 C4 2.66 4 3.32 4 4 C3.34 4 2.68 4 2 4 C1.67 4.66 1.34 5.32 1 6 C0.34 4.35 -0.32 2.7 -1 1 C-0.67 0.67 -0.34 0.34 0 0 Z " fill="#227974" transform="translate(111,378)"/>
<path d="M0 0 C4.75 0.875 4.75 0.875 7 2 C6.67 2.66 6.34 3.32 6 4 C4.68 3.34 3.36 2.68 2 2 C1.67 2.99 1.34 3.98 1 5 C0 2 0 2 0 0 Z " fill="#21726B" transform="translate(56,176)"/>
<path d="M0 0 C0.66 0 1.32 0 2 0 C2.33 3.3 2.66 6.6 3 10 C2.34 8.68 1.68 7.36 1 6 C0.67 5.67 0.34 5.34 0 5 C-0.04063832 3.33382885 -0.042721 1.66611905 0 0 Z " fill="#95B3B2" transform="translate(125,140)"/>
<path d="M0 0 C1.2065625 0.0309375 1.2065625 0.0309375 2.4375 0.0625 C2.1075 1.3825 1.7775 2.7025 1.4375 4.0625 C0.4475 4.0625 -0.5425 4.0625 -1.5625 4.0625 C-1.5625 3.4025 -1.5625 2.7425 -1.5625 2.0625 C-2.2225 1.7325 -2.8825 1.4025 -3.5625 1.0625 C-2.5625 0.0625 -2.5625 0.0625 0 0 Z " fill="#0A625C" transform="translate(99.5625,104.9375)"/>
</svg>
